<?xml version="1.0" encoding="utf-8"?>
<!-- Generator: Adobe Illustrator 21.0.0, SVG Export Plug-In . SVG Version: 6.00 Build 0)  -->
<svg version="1.1" xmlns="http://www.w3.org/2000/svg" xmlns:xlink="http://www.w3.org/1999/xlink" x="0px" y="0px"
	 viewBox="0 0 513 419" style="enable-background:new 0 0 513 419;" xml:space="preserve">
<style type="text/css">
	.st0{fill:#4D4D4D;}
	.st1{fill:#FFFFFF;}
	.st2{fill:#E7ECF2;}
	.st3{fill:#EA7182;}
	.st4{fill:#F4BACD;}
	.st5{fill:#EDEFEF;}
	.st6{fill:#E0E2E2;}
	.st7{fill:#CBD0D1;}
	.st8{fill:#569FDB;}
	.st9{fill:#4794C9;}
	.st10{fill:#77BBE8;}
	.st11{fill:#57ADDD;}
	.st12{fill:#E1F4F9;}
	.st13{display:none;fill:#C32527;}
	.st14{fill:#4B4D51;}
	.st15{fill:#EC4849;}
	.st16{fill:#F5F6FA;}
	.st17{fill:#878F99;}
	.st18{fill:#C32527;}
	.st19{clip-path:url(#SVGID_4_);}
	.st20{clip-path:url(#SVGID_6_);}
	.st21{clip-path:url(#SVGID_8_);}
	.st22{clip-path:url(#SVGID_10_);}
	.st23{fill:none;stroke:#E6E6E6;stroke-width:2;stroke-miterlimit:10;}
	.st24{fill:#F9F9F9;}
	.st25{fill:none;}
	.st26{display:none;}
	.st27{display:inline;}
	.st28{fill:#57B08F;}
	.st29{fill:#FBBC05;}
	.st30{fill:#CED2D8;}
	.st31{fill:#DDECF8;}
	.st32{fill:#4C84FF;}
	.st33{fill:#BFC5D1;}
	.st34{fill:#2A2A2A;}
</style>
<g id="Layer_3">
	<g>
		<g>
			<rect x="4867.7" y="-1198.3" class="st0" width="3955.6" height="5174.6"/>
			<path d="M8822.6-1197.6v5173.2H4868.4v-5173.2H8822.6 M8824-1199H4867v5176h3957V-1199L8824-1199z"/>
		</g>
		<g>
			<rect x="5808" y="-144" class="st1" width="1280" height="3470"/>
		</g>
	</g>
</g>
<g id="Layer_1">
	<rect x="6016.6" y="382" class="st25" width="862.5" height="46"/>
	<text transform="matrix(1 0 0 1 6179.21 417.3438)"><tspan x="0" y="0" class="st14" style="font-family:'Averta-Regular'; font-size:48px;">Go Makan Lah! </tspan><tspan x="354.3" y="0" class="st14" style="font-family:'Averta-Bold'; font-size:48px;">Reviews</tspan></text>
	<g>
		<g>
			<g>
				<g>
					<path class="st2" d="M6451.6,161.5c-36.6,0-66.2,29.7-66.2,66.2s29.7,66.2,66.2,66.2c36.6,0,66.2-29.7,66.2-66.2
						S6488.2,161.5,6451.6,161.5z M6451.6,278c-27.7,0-50.3-22.5-50.3-50.3s22.5-50.3,50.3-50.3c27.7,0,50.3,22.5,50.3,50.3
						S6479.3,278,6451.6,278z"/>
				</g>
			</g>
			<g>
				<g>
					<path class="st2" d="M6451.6,191c-20.3,0-36.8,16.5-36.8,36.8s16.5,36.8,36.8,36.8c20.3,0,36.8-16.5,36.8-36.8
						S6471.9,191,6451.6,191z"/>
				</g>
			</g>
			<g>
				<g>
					<path class="st2" d="M6544.2,233.3v-80.5c0-0.8-0.5-1.5-1.2-1.7c-0.7-0.2-1.5,0-2,0.6c-10,13.2-15.5,29.4-15.5,46v29.4
						c0,3.4,2.7,6.1,6.1,6.1h2.5c-2.5,26-4.2,62.3-4.2,66.5c0,6.7,4.1,12.1,9.2,12.1s9.2-5.4,9.2-12.1
						C6548.4,295.6,6546.7,259.3,6544.2,233.3z"/>
				</g>
			</g>
			<g>
				<g>
					<path class="st2" d="M6375.1,217.4c5.1-3.1,8.5-8.7,8.5-15.1l-2.5-41.3c-0.1-1.6-1.4-2.8-3-2.8c-1.7,0-3.1,1.4-3,3.1l1.6,33.1
						c0,1.9-1.5,3.4-3.4,3.4s-3.4-1.5-3.4-3.4l-0.8-33.1c0-1.7-1.5-3.1-3.2-3.1c-1.7,0-3.2,1.4-3.2,3.1l-0.8,33.1
						c0,1.9-1.5,3.4-3.4,3.4c-1.9,0-3.4-1.5-3.4-3.4l1.6-33.1c0.1-1.7-1.3-3.1-3-3.1c-1.6,0-2.9,1.2-3,2.8l-2.5,41.3
						c0,6.4,3.4,12,8.5,15.1c3.3,2,5.2,5.8,4.7,9.6c-2.9,25.9-4.8,68.2-4.8,72.8c0,6.7,4.1,12.1,9.2,12.1s9.2-5.4,9.2-12.1
						c0-4.6-2-46.9-4.8-72.8C6370,223.1,6371.8,219.4,6375.1,217.4z"/>
				</g>
			</g>
		</g>
		<g>
			<g>
				<g>
					<circle class="st3" cx="6451.7" cy="228.3" r="51.1"/>
				</g>
				<path class="st4" d="M6435.4,250.7h-4c-1.5,0-2.7,1.2-2.7,2.7s1.2,2.7,2.7,2.7h4c1.5,0,2.7-1.2,2.7-2.7
					S6436.9,250.7,6435.4,250.7z"/>
				<g>
					<path class="st4" d="M6431.7,240.1h-8h-8.6c-1.5,0-2.7-1.2-2.7-2.7s1.2-2.7,2.7-2.7h4.1c1.5,0,2.7-1.2,2.7-2.7
						s-1.2-2.7-2.7-2.7h-18.5c0.2,9.8,3.2,18.9,8.2,26.6h11c1.5,0,2.7-1.2,2.7-2.7s-1.2-2.7-2.7-2.7h-1.1c-1.5,0-2.7-1.2-2.7-2.7
						c0-1.5,1.2-2.7,2.7-2.7h4.9h8c1.5,0,2.7-1.2,2.7-2.7S6433.2,240.1,6431.7,240.1z"/>
					<path class="st4" d="M6489.6,194.1h-8.9c-1.5,0-2.7,1.2-2.7,2.7s1.2,2.7,2.7,2.7h4.3c1.5,0,2.7,1.2,2.7,2.7
						c0,1.5-1.2,2.7-2.7,2.7h-7.6c-1.5,0-2.7,1.2-2.7,2.7s1.2,2.7,2.7,2.7h16.9c1.5,0,2.7,1.2,2.7,2.7s-1.2,2.7-2.7,2.7h-9.3
						c-1.5,0-2.7,1.2-2.7,2.7s1.2,2.7,2.7,2.7h17.3C6500.7,210.5,6496.2,201.3,6489.6,194.1z"/>
				</g>
			</g>
			<g>
				
					<image style="overflow:visible;opacity:0.1;" width="53" height="56" xlink:href="A9372B93.png"  transform="matrix(1 0 0 1 6431.6885 224.6884)">
				</image>
				<g>
					<path class="st5" d="M6446.4,252.6c0,0,5.4,3.9,8.2-3.4s-5.3-14.8-5.3-14.8l6.2-6.3l17.8,3.8c0,0,5,15.4-2.5,29.4
						c-7.4,14.1-31.9,11.8-35.5-4.3L6446.4,252.6z"/>
				</g>
			</g>
			<g>
				<path class="st6" d="M6449.3,234.4c0,0,8.1,7.5,5.3,14.8c-2.8,7.3-8.2,3.4-8.2,3.4c6,7.3,16.5,0.7,16.5-8.1c0-8.8-6-16.1-6-16.1
					l0,0l-1.4-0.3L6449.3,234.4z"/>
				<g>
					
						<image style="overflow:visible;opacity:0.1;" width="39" height="36" xlink:href="A9372B91.png"  transform="matrix(1 0 0 1 6449.6885 205.6884)">
					</image>
					<g>
						<path class="st6" d="M6478.4,230c-3.4-5.3-5.5-11.1-6.4-14.2c-5.4-0.3-13.1-1.5-18.1-5.8c0,0.1-0.1,0.2-0.1,0.4
							c-0.3,4.3,0.2,8.4,2.5,11.7h0h0c0,0,2.4,2.1,0,6.5c8.2,3.8,17.3,3.5,21.1,3.1C6478.3,231.6,6478.8,230.7,6478.4,230z"/>
					</g>
				</g>
			</g>
			<path class="st7" d="M6464.5,231.1c0.3-0.4,0.5-0.9,0.2-1.3c-2.6-5.9-3.9-12.1-4.5-16.2c-2.1-0.8-4.1-1.8-5.8-3.2
				c-0.2-0.1-0.4-0.1-0.6-0.2c0,0,0,0.1,0,0.1c-0.3,4.3,0.2,8.4,2.5,11.7c0,0,2.4,2.1,0,6.5C6459,229.8,6461.8,230.6,6464.5,231.1z"
				/>
			<g>
				
					<image style="overflow:visible;opacity:0.1;" width="43" height="53" xlink:href="A9372B97.png"  transform="matrix(1 0 0 1 6444.6885 173.6884)">
				</image>
				<g>
					<path class="st5" d="M6477.3,215.1c-9.9-13.3-1.1-27.5-10.9-34.7c-7-5.2-14.9-2.3-17.9-1c1.2-0.2,2.5-0.5,3.8,0.4
						c7.9,5.5,2.4,18.6,1.5,30c6.1,6.6,18,6.9,22.6,6.8C6477.3,216.5,6477.7,215.7,6477.3,215.1z"/>
				</g>
			</g>
			<path class="st6" d="M6455.8,178.3c-0.7-0.4-1.4-0.5-2-0.5c-2.3,0.3-4.1,1.1-5.2,1.6c1.2-0.2,2.5-0.5,3.8,0.4
				c7.9,5.5,2.4,18.6,1.5,30c1.7,1.9,3.9,3.3,6.3,4.3C6460.8,200,6465.7,184.4,6455.8,178.3z"/>
			<path class="st5" d="M6453.2,179.7c-3.5-2.8-7.6,1.7-7.6,1.7c0,0,0,0,0,0c8,0.3,5.7,9.8,4.9,14.7c-0.6,3.6-5.4,8.6-9.2,10
				c-2.6,3.1-3.3,5.7-3.3,5.7c10.8,1.5,10.3,13,10.3,13c3.5-3.5,8.4-2.8,8.4-2.8C6449.5,210.1,6463,187.4,6453.2,179.7z"/>
			<path class="st6" d="M6441.3,206.2c-2.6,3.1-3.3,5.7-3.3,5.7c2.8,0.4,4.8,1.5,6.3,2.8c1.3-5.6,3.9-11.4,5.6-16.8
				C6448.5,201.2,6444.6,205,6441.3,206.2z"/>
			<path class="st5" d="M6445.6,181.4l-6.1,3.2c-0.4,0.2-0.6,0.7-0.5,1.1l0.1,0.6c0.1,0.3-0.1,0.5-0.4,0.5c-1.3,0.1-5,0.5-6.8,1.4
				c-0.7,0.4-1.1,1.2-0.8,2l0.3,1c0,0-0.3,2.8,1.7,5.1c0.2,0.2,0.5,0.2,0.6,0c0.8-0.8,3-2.8,7.1-2c1.8,0.4,2.7,2.4,1.7,3.9
				c-0.8,1.3-2.6,2.5-6.3,2c-0.2,0-0.3,0.1-0.3,0.3v0.8l-1,0.6c-0.2,0.1-0.3,0.4-0.2,0.6c0.3,0.9,1.3,3.1,4.3,3.8
				c3.8,0.9,11.1-5.7,11.9-10.3C6451.7,191.2,6454.1,181.4,6445.6,181.4z"/>
			<path class="st6" d="M6449.3,267.5c-5.1-2.3-8.6-6.9-9.6-12.1l-4.3,1.7c2.7,12.1,17.3,16.4,27.5,11.7
				C6458.4,269.8,6453.5,269.3,6449.3,267.5z"/>
			<g>
				<path class="st8" d="M6451.7,279.3c12.1,0,23.1-4.2,31.9-11.2c-3.8-2-8-3.2-12.6-3.2c-4.4,0-8.6,1.1-12.2,3
					c-4.4,2.3-9.7,2.3-14.1,0c-3.7-1.9-7.8-3-12.2-3c-4.5,0-8.8,1.2-12.6,3.2C6428.6,275.1,6439.7,279.3,6451.7,279.3z"/>
				<path class="st9" d="M6442.7,273.1c0-2,0.7-3.8,1.9-5.2c-3.6-1.9-7.8-2.9-12.2-2.9c-4.5,0-8.8,1.2-12.6,3.2
					c7.1,5.7,15.8,9.5,25.3,10.8C6443.6,277.4,6442.7,275.4,6442.7,273.1z"/>
				<path class="st10" d="M6458.8,273.6c-4.4,2.3-9.7,2.3-14.1,0c-3.7-1.9-7.8-3-12.2-3c-2.6,0-5.1,0.4-7.5,1.1
					c7.8,4.8,17,7.6,26.8,7.6c9.8,0,19-2.8,26.8-7.6c-2.4-0.7-4.9-1.1-7.5-1.1C6466.6,270.6,6462.4,271.7,6458.8,273.6z"/>
				<path class="st11" d="M6442.7,273.1c0-0.1,0-0.3,0-0.4c-3.2-1.3-6.6-2.1-10.3-2.1c-2.6,0-5.1,0.4-7.5,1.1
					c6,3.7,12.9,6.2,20.2,7.2C6443.6,277.4,6442.7,275.4,6442.7,273.1z"/>
			</g>
			<path class="st12" d="M6442.9,195.4c-17.5,4.1-30.9,12.3-40.6,20.2c-1,4-1.6,8.3-1.6,12.6c0,1.2,0,2.3,0.1,3.4
				c14.9-22.6,32.1-31.9,42.4-35.6C6443.1,195.8,6443,195.6,6442.9,195.4z"/>
			<path class="st1" d="M6443.1,195.7c-0.1-0.1-0.1-0.2-0.2-0.3c-17.5,4.1-30.9,12.3-40.6,20.2c-0.5,1.9-0.9,3.9-1.1,5.9
				C6417,205.6,6432.7,198.7,6443.1,195.7z"/>
			<path class="st6" d="M6442,187.6l2.2,0.5c1,0.2,2.1-0.4,2.3-1.4l0.3-0.9c0.2-0.7-0.5-1.2-1.1-0.9l-3.8,1.9
				C6441.6,187.1,6441.6,187.6,6442,187.6z"/>
			<path class="st7" d="M6444.9,186.7l-1.8-0.4l-1.2,0.6c-0.3,0.2-0.3,0.7,0.1,0.8l2.2,0.5c1,0.2,2.1-0.4,2.3-1.4l0.2-0.6
				C6446.2,186.6,6445.6,186.9,6444.9,186.7z"/>
			<g>
				<path class="st6" d="M6431.4,191.2c0,0-0.3,2.8,1.7,5.1c0.2,0.2,0.5,0.2,0.6,0c0.3-0.4,0.9-0.9,1.8-1.4c-1.2-2-0.9-3.2-0.6-3.8
					c0.2-0.3,0.2-0.7,0.1-1c-0.5-2.4,1-2.9,1-2.9l0,0c-1.5,0.2-3.1,0.6-4.1,1.1c-0.7,0.4-1,1.2-0.8,1.9L6431.4,191.2z"/>
				<path class="st6" d="M6439.1,206.5c1.4,0.3,3.2-0.3,4.9-1.5c-4.2,0.7-5.5-3.1-5.8-4.6c-0.6,0-1.2,0-1.9-0.1
					c-0.2,0-0.3,0.1-0.3,0.3v0.8l-1,0.6c-0.2,0.1-0.3,0.4-0.2,0.6C6435.1,203.6,6436.1,205.8,6439.1,206.5z"/>
				<path class="st6" d="M6473.6,246.7c-0.9,0-1.6-0.7-1.6-1.6c0-0.8-0.7-1.5-1.5-1.5s-1.5,0.7-1.5,1.5c0,0.9-0.7,1.6-1.6,1.6
					s-1.6-0.7-1.6-1.6c0-0.8-0.7-1.5-1.5-1.5s-1.5,0.7-1.5,1.5c0,2.5,2.1,4.6,4.6,4.6c1.2,0,2.3-0.5,3.1-1.2
					c0.8,0.7,1.9,1.2,3.1,1.2c0.4,0,0.7,0,1-0.1c0.2-1.3,0.3-2.5,0.3-3.7C6474.6,246.4,6474.1,246.7,6473.6,246.7z"/>
				<path class="st6" d="M6468.6,252.8c-0.8,0-1.5,0.7-1.5,1.5c0,0.9-0.7,1.6-1.6,1.6c-0.9,0-1.6-0.7-1.6-1.6c0-0.8-0.7-1.5-1.5-1.5
					s-1.5,0.7-1.5,1.5c0,2.5,2.1,4.6,4.6,4.6s4.6-2.1,4.6-4.6C6470.1,253.4,6469.4,252.8,6468.6,252.8z"/>
			</g>
			<path class="st5" d="M6456.7,222c0,0,4.1,4.1-4.9,13.1c0,0,8.8-1.7,10.6,6.2c0,0,3.1,4.2-0.8,8.2c0,0-0.7,3.1-4.8,3.9
				c0,0-2.2,2.1-6.6,0.3c-0.4-0.2-0.6-0.6-0.4-1c0.6-1.4,1.7-4.7-0.7-7.1c-1-0.9-2.6-0.8-3.3,0.3c-0.9,1.3-1.4,3.5,0.5,6.6
				l-11.1,4.4c0,0-0.7-6.5,2-13.1c2.6-6.4,2.5-20-9.6-29.7c-0.4-0.3-0.3-0.9,0.2-1.1c1.5-0.6,4.2-1.4,6.8-0.6c0,0,1.1-0.7,3.4-0.7
				s10.3,1.1,10.3,13C6448.3,224.8,6451.5,220.8,6456.7,222z"/>
			<g>
				<path class="st6" d="M6439.5,250c0.3-2.2,0.8-4.7,1.9-7.3c2.6-6.4,2.5-20-9.6-29.7c-0.2-0.2-0.3-0.5-0.2-0.7
					c-1.4,0.1-2.7,0.6-3.6,0.9c-0.5,0.2-0.6,0.8-0.2,1.1c12.2,9.7,12.3,23.3,9.6,29.7c-2.7,6.6-2,13.1-2,13.1l4.3-1.7
					C6439.3,253.6,6439.2,251.8,6439.5,250z"/>
				<path class="st6" d="M6450.4,244c-4-0.8-4.9,2.9-4.9,2.9l0,0c0.1-0.3,0.3-0.6,0.4-0.9c0.7-1.1,2.3-1.3,3.3-0.3
					c2.4,2.4,1.3,5.7,0.7,7.1C6453.2,251.8,6454.4,244.8,6450.4,244z"/>
				<path class="st6" d="M6456.7,222c-5.2-1.2-8.4,2.8-8.4,2.8c0-5.5-1.7-8.7-3.8-10.5c3.3,6.9,2,13.2,1.5,15.1
					c-0.1,0.2-0.1,0.3-0.2,0.5c-0.1,0.4,0.4,0.7,0.7,0.4c2-2.5,6.5-7.3,11-5.8C6457.5,222.8,6456.7,222,6456.7,222z"/>
			</g>
		</g>
	</g>
	<g>
		<rect x="5808" y="-144" class="st13" width="1280" height="112"/>
		<rect x="5840" y="-82" class="st25" width="203" height="34"/>
		<text transform="matrix(1 0 0 1 5840 -56.9648)" class="st18" style="font-family:'Averta-Regular'; font-size:34px;">Logo</text>
		<rect x="6446" y="-66" class="st25" width="610" height="48"/>
		<text transform="matrix(1 0 0 1 6446 -48.3281)"><tspan x="0" y="0" class="st14" style="font-family:'Averta-Regular'; font-size:24px;">Tours     About Us     </tspan><tspan x="228.9" y="0" class="st18" style="font-family:'Averta-Regular'; font-size:24px;">Reviews </tspan><tspan x="325.1" y="0" class="st14" style="font-family:'Averta-Regular'; font-size:24px;">    Blog      Contact     </tspan><tspan x="0" y="28.8" class="st14" style="font-family:'Averta-Regular'; font-size:24px;">FAQ</tspan></text>
		<g>
			<g>
				<path id="Facebook__x28_alt_x29_" class="st14" d="M6894.5-124c0-2.1-1.9-4-4-4h-16c-2.1,0-4,1.9-4,4v16c0,2.1,1.9,4,4,4h8v-9.1
					h-2.9v-4h2.9v-1.6c0-2.7,2-5.1,4.5-5.1h3.2v4h-3.2c-0.4,0-0.8,0.4-0.8,1.1v1.6h4v4h-4v9.1h4.3c2.1,0,4-1.9,4-4V-124z"/>
			</g>
			<g>
				<g>
					<g>
						<path class="st14" d="M6932.7-128h-9c-4.1,0-7.5,3.4-7.5,7.5v9c0,4.1,3.4,7.5,7.5,7.5h9c4.1,0,7.5-3.4,7.5-7.5v-9
							C6940.2-124.7,6936.8-128,6932.7-128z M6937.9-111.5c0,2.9-2.4,5.3-5.3,5.3h-9c-2.9,0-5.3-2.4-5.3-5.3v-9
							c0-2.9,2.4-5.3,5.3-5.3h9c2.9,0,5.3,2.4,5.3,5.3V-111.5z"/>
					</g>
				</g>
				<g>
					<g>
						<path class="st14" d="M6928.2-122c-3.3,0-6,2.7-6,6s2.7,6,6,6s6-2.7,6-6S6931.5-122,6928.2-122z M6928.2-112.3
							c-2.1,0-3.8-1.7-3.8-3.8c0-2.1,1.7-3.8,3.8-3.8s3.8,1.7,3.8,3.8C6931.9-114,6930.3-112.3,6928.2-112.3z"/>
					</g>
				</g>
				<g>
					<g>
						<circle class="st14" cx="6934.6" cy="-122.5" r="0.8"/>
					</g>
				</g>
			</g>
			<g>
				<g>
					<g>
						<path class="st14" d="M6999.2-123.3h-6.8c-7.2-6.3-17.8-6.3-25,0h-6.8c0,0,1.5,1.9,2.2,3.6c-1.4,1.6-2.2,3.7-2.2,6
							c0,5.3,4.3,9.6,9.6,9.6c3.2,0,6-1.5,7.7-3.9l2,3.9l1.9-3.9c1.8,2.3,4.5,3.9,7.7,3.9c5.3,0,9.6-4.3,9.6-9.6
							c0-2.3-0.8-4.4-2.2-6C6997.6-121.5,6999.2-123.3,6999.2-123.3z M6970.2-106.4c-4,0-7.2-3.3-7.2-7.2c0-4,3.3-7.2,7.2-7.2
							c4,0,7.2,3.3,7.2,7.2C6977.4-109.7,6974.2-106.4,6970.2-106.4z M6989.5-106.4c-4,0-7.2-3.3-7.2-7.2c0-4,3.3-7.2,7.2-7.2
							s7.2,3.3,7.2,7.2C6996.7-109.7,6993.5-106.4,6989.5-106.4z"/>
					</g>
				</g>
				<g>
					<g>
						<path class="st14" d="M6970.2-118.5c-2.7,0-4.8,2.2-4.8,4.8c0,2.7,2.2,4.8,4.8,4.8c2.7,0,4.8-2.2,4.8-4.8
							C6975-116.3,6972.9-118.5,6970.2-118.5z M6970.2-111.3c-1.3,0-2.4-1.1-2.4-2.4c0-1.3,1.1-2.4,2.4-2.4c1.3,0,2.4,1.1,2.4,2.4
							C6972.6-112.4,6971.5-111.3,6970.2-111.3z"/>
					</g>
				</g>
				<g>
					<g>
						<path class="st14" d="M6989.5-118.5c-2.7,0-4.8,2.2-4.8,4.8c0,2.7,2.2,4.8,4.8,4.8c2.7,0,4.8-2.2,4.8-4.8
							C6994.3-116.3,6992.2-118.5,6989.5-118.5z M6989.5-111.3c-1.3,0-2.4-1.1-2.4-2.4c0-1.3,1.1-2.4,2.4-2.4s2.4,1.1,2.4,2.4
							C6991.9-112.4,6990.8-111.3,6989.5-111.3z"/>
					</g>
				</g>
				<g>
					<g>
						<circle class="st14" cx="6970.2" cy="-113.7" r="1.2"/>
					</g>
				</g>
				<g>
					<g>
						<circle class="st14" cx="6989.5" cy="-113.7" r="1.2"/>
					</g>
				</g>
			</g>
			<g>
				<g>
					<path class="st14" d="M7054.5-125.7c-0.9-1.7-2-2-4.1-2.1c-2.1-0.1-7.3-0.2-11.9-0.2c-4.6,0-9.8,0.1-11.9,0.2
						c-2.1,0.1-3.1,0.4-4.1,2.1c-1,1.7-1.5,4.6-1.5,9.7c0,0,0,0,0,0c0,0,0,0,0,0v0c0,5.1,0.5,8,1.5,9.7c1,1.7,2,2,4.1,2.1
						c2.1,0.1,7.3,0.2,11.9,0.2c4.6,0,9.8-0.1,11.9-0.2c2.1-0.1,3.1-0.4,4.1-2.1c1-1.7,1.5-4.6,1.5-9.7c0,0,0,0,0,0c0,0,0,0,0,0
						C7056-121.1,7055.5-124,7054.5-125.7z M7034.2-109.5v-13.1l10.9,6.5L7034.2-109.5z"/>
				</g>
			</g>
		</g>
		<rect x="6777" y="-123" class="st25" width="74" height="15"/>
		<text transform="matrix(1 0 0 1 6777 -108.2733)" class="st14" style="font-family:'Averta-Regular'; font-size:20px;">Find us:</text>
	</g>
	<g>
		<rect x="6063.9" y="547" class="st25" width="207" height="26"/>
		<text transform="matrix(1 0 0 1 6063.875 564.6719)"><tspan x="0" y="0" class="st17" style="font-family:'Averta-Regular'; font-size:24px;">Browse by </tspan><tspan x="121.1" y="0" class="st17" style="font-family:'Averta-Bold'; font-size:24px;">Tags</tspan></text>
		<g>
			<g>
				<g>
					<path class="st15" d="M6197.5,669h-127.2c-3.5,0-6.4-2.9-6.4-6.4v-42.2c0-3.5,2.9-6.4,6.4-6.4h127.2c3.5,0,6.4,2.9,6.4,6.4
						v42.2C6203.9,666.1,6201,669,6197.5,669z"/>
				</g>
				<rect x="6074.9" y="633.8" class="st25" width="118" height="15.5"/>
				<text transform="matrix(1 0 0 1 6091.2334 648.4766)" class="st1" style="font-family:'Averta-Semibold'; font-size:20px;">Featured</text>
			</g>
			<g>
				<path class="st16" d="M6364.1,669h-127.2c-3.5,0-6.4-2.9-6.4-6.4v-42.2c0-3.5,2.9-6.4,6.4-6.4h127.2c3.5,0,6.4,2.9,6.4,6.4v42.2
					C6370.5,666.1,6367.6,669,6364.1,669z"/>
				<rect x="6241.5" y="633.8" class="st25" width="118" height="15.5"/>
				<text transform="matrix(1 0 0 1 6260.6006 648.4766)" class="st17" style="font-family:'Averta-Semibold'; font-size:20px;">Michelin</text>
			</g>
			<g>
				<path class="st16" d="M6529.7,669h-127.2c-3.5,0-6.4-2.9-6.4-6.4v-42.2c0-3.5,2.9-6.4,6.4-6.4h127.2c3.5,0,6.4,2.9,6.4,6.4v42.2
					C6536.1,666.1,6533.2,669,6529.7,669z"/>
				<rect x="6407.1" y="633.8" class="st25" width="118" height="15.5"/>
				<text transform="matrix(1 0 0 1 6425.1934 648.4766)" class="st17" style="font-family:'Averta-Semibold'; font-size:20px;">Heritage</text>
			</g>
			<g>
				<path class="st16" d="M6683.7,669h-114c-3.6,0-6.5-2.9-6.5-6.5v-42c0-3.6,2.9-6.5,6.5-6.5h114c3.6,0,6.5,2.9,6.5,6.5v42
					C6690.2,666.1,6687.2,669,6683.7,669z"/>
				<rect x="6567.7" y="633.8" class="st25" width="118" height="15.5"/>
				<text transform="matrix(1 0 0 1 6598.4971 648.4766)" class="st17" style="font-family:'Averta-Semibold'; font-size:20px;">Street</text>
			</g>
			<g>
				<path class="st16" d="M6824.8,669h-105c-3.6,0-6.5-2.9-6.5-6.5v-42c0-3.6,2.9-6.5,6.5-6.5h105c3.6,0,6.5,2.9,6.5,6.5v42
					C6831.3,666.1,6828.3,669,6824.8,669z"/>
				<rect x="6713.3" y="633.8" class="st25" width="118" height="15.5"/>
				<text transform="matrix(1 0 0 1 6746.3662 648.4766)" class="st17" style="font-family:'Averta-Semibold'; font-size:20px;">Local</text>
			</g>
		</g>
		<g>
			<g>
				<path class="st16" d="M6214.4,748h-144c-3.6,0-6.5-2.9-6.5-6.5v-42c0-3.6,2.9-6.5,6.5-6.5h144c3.6,0,6.5,2.9,6.5,6.5v42
					C6220.9,745.1,6218,748,6214.4,748z"/>
				<rect x="6083.4" y="712.8" class="st25" width="118" height="15.5"/>
				<text transform="matrix(1 0 0 1 6099.4893 727.4766)" class="st17" style="font-family:'Averta-Semibold'; font-size:20px;">Celebrity</text>
			</g>
			<g>
				<path class="st16" d="M6377.9,748h-122c-3.6,0-6.5-2.9-6.5-6.5v-42c0-3.6,2.9-6.5,6.5-6.5h122c3.6,0,6.5,2.9,6.5,6.5v42
					C6384.4,745.1,6381.5,748,6377.9,748z"/>
				<rect x="6257.9" y="712.8" class="st25" width="118" height="15.5"/>
				<text transform="matrix(1 0 0 1 6280.5762 727.4766)" class="st17" style="font-family:'Averta-Semibold'; font-size:20px;">Novelty</text>
			</g>
			<g>
				<path class="st16" d="M6542.9,748h-125c-3.6,0-6.5-2.9-6.5-6.5v-42c0-3.6,2.9-6.5,6.5-6.5h125c3.6,0,6.5,2.9,6.5,6.5v42
					C6549.4,745.1,6546.5,748,6542.9,748z"/>
				<rect x="6421.4" y="712.8" class="st25" width="118" height="15.5"/>
				<text transform="matrix(1 0 0 1 6440.9512 727.4766)" class="st17" style="font-family:'Averta-Semibold'; font-size:20px;">Desserts</text>
			</g>
			<g>
				<path class="st16" d="M6716.4,748h-137c-3.6,0-6.5-2.9-6.5-6.5v-42c0-3.6,2.9-6.5,6.5-6.5h137c3.6,0,6.5,2.9,6.5,6.5v42
					C6722.9,745.1,6720,748,6716.4,748z"/>
				<rect x="6588.9" y="712.8" class="st25" width="118" height="15.5"/>
				<text transform="matrix(1 0 0 1 6595.8145 727.4766)" class="st17" style="font-family:'Averta-Semibold'; font-size:20px;">Small Bites</text>
			</g>
		</g>
	</g>
	<image style="overflow:visible;" width="1640" height="4916" xlink:href="A9372B91.jpg"  transform="matrix(1 0 0 1 3749 -881)">
	</image>
	<rect x="5896.6" y="899.6" class="st25" width="244.4" height="45.4"/>
	<text transform="matrix(1 0 0 1 5896.6177 924.6045)" class="st14" style="font-family:'Averta-Semibold'; font-size:34px;">Editor’s Choice</text>
	<rect x="5896.6" y="1474.7" class="st25" width="318.4" height="25.4"/>
	<text transform="matrix(1 0 0 1 5896.6177 1499.7122)" class="st14" style="font-family:'Averta-Semibold'; font-size:34px;">Popular Reviews</text>
	<g>
		<g>
			
				<image style="overflow:visible;" width="664" height="664" xlink:href="../../Assignment 2/CS2024/images/Jasmine-Lee.png"  transform="matrix(0.1355 0 0 0.1355 5905.8457 1618)">
			</image>
			<rect x="5897.5" y="1728.3" class="st25" width="107" height="42"/>
			<text transform="matrix(1 0 0 1 5914.8301 1740.0874)"><tspan x="0" y="0" class="st14" style="font-family:'Averta-Semibold'; font-size:16px;">Jessica P, </tspan><tspan x="3.6" y="19.2" class="st14" style="font-family:'Averta-Regular'; font-size:16px;">Thailand</tspan></text>
			<g>
				<rect x="5931.7" y="1782" class="st25" width="60" height="15.4"/>
				<text transform="matrix(1 0 0 1 5934.5952 1793.8125)" class="st17" style="font-family:'Averta-Regular'; font-size:16px;">3w ago</text>
				<g>
					<g>
						<path class="st17" d="M5918.3,1781.7c-4.4,0-8,3.6-8,8s3.6,8,8,8c4.4,0,8-3.6,8-8S5922.7,1781.7,5918.3,1781.7z M5918.3,1796
							c-3.5,0-6.3-2.8-6.3-6.3s2.8-6.3,6.3-6.3c3.5,0,6.3,2.8,6.3,6.3S5921.7,1796,5918.3,1796z"/>
						<path class="st17" d="M5922.4,1789.5h-3.6v-4.3c0-0.4-0.3-0.7-0.7-0.7s-0.7,0.3-0.7,0.7v5c0,0.4,0.3,0.7,0.7,0.7h4.3
							c0.4,0,0.7-0.3,0.7-0.7S5922.8,1789.5,5922.4,1789.5z"/>
					</g>
				</g>
			</g>
		</g>
		<g>
			<rect x="6069" y="1728.7" class="st25" width="886" height="137"/>
			<text transform="matrix(1 0 0 1 6069 1743.4204)"><tspan x="0" y="0" class="st14" style="font-family:'Averta-Regular'; font-size:20px;">Every dish we sampled was delicious, a highlight being the hainan chicken rice, but there was </tspan><tspan x="0" y="24" class="st14" style="font-family:'Averta-Regular'; font-size:20px;">so much more that I would never have tried if it weren&apos;t for going with an experienced guide. </tspan><tspan x="0" y="48" class="st14" style="font-family:'Averta-Regular'; font-size:20px;">She even brought us to the beach view where we tried the famous Singapore crab dish... </tspan><tspan x="822.1" y="48" class="st15" style="font-family:'Averta-Regular'; font-size:20px;">More</tspan></text>
			<rect x="6069" y="1675.7" class="st25" width="344" height="28"/>
			<text transform="matrix(1 0 0 1 6069 1693.3657)" class="st14" style="font-family:'Averta-Semibold'; font-size:24px;">Perfectly Local Experience!</text>
			<g>
				<g>
					<polygon class="st18" points="6081,1618 6084.7,1625.5 6093,1626.7 6087,1632.6 6088.4,1640.8 6081,1636.9 6073.6,1640.8 
						6075,1632.6 6069,1626.7 6077.3,1625.5 					"/>
					<rect x="6110" y="1620.6" class="st25" width="39" height="17.7"/>
					<text transform="matrix(1 0 0 1 6110 1638.2307)" class="st18" style="font-family:'Averta-Semibold'; font-size:24px;">8.5</text>
				</g>
			</g>
			<g>
				<rect x="6233.5" y="1619.8" class="st25" width="66" height="21"/>
				<text transform="matrix(1 0 0 1 6233.5 1637.5135)" class="st17" style="font-family:'Averta-Regular'; font-size:24px;">Local</text>
				<path class="st17" d="M6208.5,1621.1c-0.5-0.6-1.2-1.1-2.1-1.1l-13.9,0c-1.4,0-2.5,1.1-2.5,2.5v12.6c0,1.4,1.1,2.5,2.5,2.5
					l13.9,0c0.8,0,1.6-0.4,2.1-1.1l5.5-7.8L6208.5,1621.1z"/>
			</g>
		</g>
	</g>
	<g>
		<g>
			
				<image style="overflow:visible;" width="664" height="664" xlink:href="../../Assignment 2/CS2024/images/Bryan-Koh.png"  transform="matrix(0.1355 0 0 0.1355 5905.9634 1999)">
			</image>
			<rect x="5893.3" y="2108.3" class="st25" width="115.4" height="42"/>
			<text transform="matrix(1 0 0 1 5894.8657 2120.0874)"><tspan x="0" y="0" class="st14" style="font-family:'Averta-Semibold'; font-size:16px;">Kim Taehyung, </tspan><tspan x="34" y="19.2" class="st14" style="font-family:'Averta-Regular'; font-size:16px;">Korea</tspan></text>
			<g>
				<rect x="5931.7" y="2162" class="st25" width="60" height="15.4"/>
				<text transform="matrix(1 0 0 1 5934.4429 2173.8125)" class="st17" style="font-family:'Averta-Regular'; font-size:16px;">5w ago</text>
				<g>
					<g>
						<path class="st17" d="M5918.3,2161.7c-4.4,0-8,3.6-8,8s3.6,8,8,8c4.4,0,8-3.6,8-8S5922.7,2161.7,5918.3,2161.7z M5918.3,2176
							c-3.5,0-6.3-2.8-6.3-6.3s2.8-6.3,6.3-6.3c3.5,0,6.3,2.8,6.3,6.3S5921.7,2176,5918.3,2176z"/>
						<path class="st17" d="M5922.4,2169.5h-3.6v-4.3c0-0.4-0.3-0.7-0.7-0.7s-0.7,0.3-0.7,0.7v5c0,0.4,0.3,0.7,0.7,0.7h4.3
							c0.4,0,0.7-0.3,0.7-0.7S5922.8,2169.5,5922.4,2169.5z"/>
					</g>
				</g>
			</g>
		</g>
		<g>
			<rect x="6069" y="2108.7" class="st25" width="886" height="137"/>
			<text transform="matrix(1 0 0 1 6069 2123.4204)"><tspan x="0" y="0" class="st14" style="font-family:'Averta-Regular'; font-size:20px;">The price was a little expensive, but that is my only complaint. We got to explore places we </tspan><tspan x="0" y="24" class="st14" style="font-family:'Averta-Regular'; font-size:20px;">didn’t even imagine we will because they are so “hidden” even from the reviews online. For </tspan><tspan x="0" y="48" class="st14" style="font-family:'Averta-Regular'; font-size:20px;">example, the bar near the concierge at a hotel! *** WAI KIT</tspan></text>
			<rect x="6069" y="2055.7" class="st25" width="468" height="28"/>
			<text transform="matrix(1 0 0 1 6069 2073.3657)" class="st14" style="font-family:'Averta-Semibold'; font-size:24px;">Got to explore places I didn’t find online</text>
			<g>
				<g>
					<polygon class="st18" points="6081,1998 6084.7,2005.5 6093,2006.7 6087,2012.6 6088.4,2020.8 6081,2016.9 6073.6,2020.8 
						6075,2012.6 6069,2006.7 6077.3,2005.5 					"/>
					<rect x="6110" y="2000.6" class="st25" width="39" height="17.7"/>
					<text transform="matrix(1 0 0 1 6110 2018.2307)" class="st18" style="font-family:'Averta-Semibold'; font-size:24px;">7.0</text>
				</g>
			</g>
			<g>
				<rect x="6233.5" y="1999.8" class="st25" width="94.5" height="21"/>
				<text transform="matrix(1 0 0 1 6233.5 2017.5135)" class="st17" style="font-family:'Averta-Regular'; font-size:24px;">Novelty</text>
				<path class="st17" d="M6208.5,2001.1c-0.5-0.6-1.2-1.1-2.1-1.1l-13.9,0c-1.4,0-2.5,1.1-2.5,2.5v12.6c0,1.4,1.1,2.5,2.5,2.5
					l13.9,0c0.8,0,1.6-0.4,2.1-1.1l5.5-7.8L6208.5,2001.1z"/>
			</g>
		</g>
	</g>
	<g>
		<g>
			<g>
				<defs>
					<circle id="SVGID_1_" cx="5951" cy="2434" r="45"/>
				</defs>
				<clipPath id="SVGID_2_">
					<use xlink:href="#SVGID_1_"  style="overflow:visible;"/>
				</clipPath>
				<g style="clip-path:url(#SVGID_2_);">
					
						<image style="overflow:visible;" width="1092" height="735" xlink:href="A9372B9F.jpg"  transform="matrix(0.1598 0 0 0.1598 5897 2388.9424)">
					</image>
				</g>
			</g>
			<rect x="5893.3" y="2498.3" class="st25" width="115.4" height="42"/>
			<text transform="matrix(1 0 0 1 5908.436 2510.0874)"><tspan x="0" y="0" class="st14" style="font-family:'Averta-Semibold'; font-size:16px;">Simon Yap, </tspan><tspan x="4.6" y="19.2" class="st14" style="font-family:'Averta-Regular'; font-size:16px;">Singapore</tspan></text>
			<g>
				<rect x="5931.7" y="2552" class="st25" width="60" height="15.4"/>
				<text transform="matrix(1 0 0 1 5934.2241 2563.8125)" class="st17" style="font-family:'Averta-Regular'; font-size:16px;">6w ago</text>
				<g>
					<g>
						<path class="st17" d="M5918.3,2551.7c-4.4,0-8,3.6-8,8s3.6,8,8,8c4.4,0,8-3.6,8-8S5922.7,2551.7,5918.3,2551.7z M5918.3,2566
							c-3.5,0-6.3-2.8-6.3-6.3s2.8-6.3,6.3-6.3c3.5,0,6.3,2.8,6.3,6.3S5921.7,2566,5918.3,2566z"/>
						<path class="st17" d="M5922.4,2559.5h-3.6v-4.3c0-0.4-0.3-0.7-0.7-0.7s-0.7,0.3-0.7,0.7v5c0,0.4,0.3,0.7,0.7,0.7h4.3
							c0.4,0,0.7-0.3,0.7-0.7S5922.8,2559.5,5922.4,2559.5z"/>
					</g>
				</g>
			</g>
		</g>
		<g>
			<rect x="6069" y="2498.7" class="st25" width="886" height="137"/>
			<text transform="matrix(1 0 0 1 6069 2513.4204)"><tspan x="0" y="0" class="st14" style="font-family:'Averta-Regular'; font-size:20px;">The price was a little expensive, but that is my only complaint. We got to explore places we </tspan><tspan x="0" y="24" class="st14" style="font-family:'Averta-Regular'; font-size:20px;">didn’t even imagine we will because they are so “hidden” even from the reviews online. For </tspan><tspan x="0" y="48" class="st14" style="font-family:'Averta-Regular'; font-size:20px;">example, the bar near the concierge at a hotel... </tspan><tspan x="450.5" y="48" class="st15" style="font-family:'Averta-Regular'; font-size:20px;">More</tspan></text>
			<rect x="6069" y="2445.7" class="st25" width="468" height="28"/>
			<text transform="matrix(1 0 0 1 6069 2463.3657)" class="st14" style="font-family:'Averta-Semibold'; font-size:24px;">Please write a deesiao review</text>
			<g>
				<g>
					<polygon class="st18" points="6081,2388 6084.7,2395.5 6093,2396.7 6087,2402.6 6088.4,2410.8 6081,2406.9 6073.6,2410.8 
						6075,2402.6 6069,2396.7 6077.3,2395.5 					"/>
					<rect x="6110" y="2390.6" class="st25" width="39" height="17.7"/>
					<text transform="matrix(1 0 0 1 6110 2408.2307)" class="st18" style="font-family:'Averta-Semibold'; font-size:24px;">2.5</text>
				</g>
			</g>
			<g>
				<rect x="6233.5" y="2389.8" class="st25" width="128.5" height="21"/>
				<text transform="matrix(1 0 0 1 6233.5 2407.5137)" class="st17" style="font-family:'Averta-Regular'; font-size:24px;">Celebrity</text>
				<path class="st17" d="M6208.5,2391.1c-0.5-0.6-1.2-1.1-2.1-1.1l-13.9,0c-1.4,0-2.5,1.1-2.5,2.5v12.6c0,1.4,1.1,2.5,2.5,2.5
					l13.9,0c0.8,0,1.6-0.4,2.1-1.1l5.5-7.8L6208.5,2391.1z"/>
			</g>
		</g>
	</g>
	<g>
		<defs>
			<path id="SVGID_3_" d="M6138.5,1326h-237c-3.6,0-6.5-2.9-6.5-6.5v-287c0-3.6,2.9-6.5,6.5-6.5h237c3.6,0,6.5,2.9,6.5,6.5v287
				C6145,1323.1,6142.1,1326,6138.5,1326z"/>
		</defs>
		<clipPath id="SVGID_4_">
			<use xlink:href="#SVGID_3_"  style="overflow:visible;"/>
		</clipPath>
		<g class="st19">
			<image style="overflow:visible;" width="420" height="315" xlink:href="A9372B90.jpg"  transform="matrix(1 0 0 1 5811 1020)">
			</image>
		</g>
		<g class="st19">
			
				<image style="overflow:visible;opacity:0.75;" width="205" height="144" xlink:href="A9372B90.png"  transform="matrix(1 0 0 1 5912 1158)">
			</image>
			<g>
				<rect x="5916" y="1165" class="st25" width="187" height="123"/>
				<text transform="matrix(1 0 0 1 5916 1182.6719)"><tspan x="0" y="0" class="st1" style="font-family:'Averta-Bold'; font-size:24px;">Crazy Bars</tspan><tspan x="0" y="43.2" class="st1" style="font-family:'Averta-Semibold'; font-size:20px;">Explore the hidden </tspan><tspan x="0" y="67.2" class="st1" style="font-family:'Averta-Semibold'; font-size:20px;">and outrageous </tspan><tspan x="0" y="91.2" class="st1" style="font-family:'Averta-Semibold'; font-size:20px;">bars in Singapore</tspan></text>
			</g>
		</g>
	</g>
	<g>
		<defs>
			<path id="SVGID_5_" d="M6423.8,1326h-237c-3.6,0-6.5-2.9-6.5-6.5v-287c0-3.6,2.9-6.5,6.5-6.5h237c3.6,0,6.5,2.9,6.5,6.5v287
				C6430.3,1323.1,6427.4,1326,6423.8,1326z"/>
		</defs>
		<clipPath id="SVGID_6_">
			<use xlink:href="#SVGID_5_"  style="overflow:visible;"/>
		</clipPath>
		<g transform="matrix(1 0 0 1 4.882813e-04 6.103516e-05)" class="st20">
			
				<image style="overflow:visible;" width="720" height="480" xlink:href="74F94C40.jpg"  transform="matrix(0.6819 0 0 0.6819 6149 1002)">
			</image>
		</g>
		<g class="st20">
			
				<image style="overflow:visible;opacity:0.75;" width="205" height="144" xlink:href="74F94C40.png"  transform="matrix(1 0 0 1 6202 1158)">
			</image>
			<g>
				<rect x="6206" y="1165" class="st25" width="187" height="123"/>
				<text transform="matrix(1 0 0 1 6206 1182.6719)"><tspan x="0" y="0" class="st1" style="font-family:'Averta-Bold'; font-size:24px;">East Meets West</tspan><tspan x="0" y="43.2" class="st1" style="font-family:'Averta-Semibold'; font-size:20px;">Try a mix of </tspan><tspan x="0" y="67.2" class="st1" style="font-family:'Averta-Semibold'; font-size:20px;">different Asian </tspan><tspan x="0" y="91.2" class="st1" style="font-family:'Averta-Semibold'; font-size:20px;">flavours instead</tspan></text>
			</g>
		</g>
	</g>
	<g>
		<defs>
			<path id="SVGID_7_" d="M6709.2,1326h-237c-3.6,0-6.5-2.9-6.5-6.5v-287c0-3.6,2.9-6.5,6.5-6.5h237c3.6,0,6.5,2.9,6.5,6.5v287
				C6715.7,1323.1,6712.8,1326,6709.2,1326z"/>
		</defs>
		<clipPath id="SVGID_8_">
			<use xlink:href="#SVGID_7_"  style="overflow:visible;"/>
		</clipPath>
		<g transform="matrix(1 0 0 1 0 6.103516e-05)" class="st21">
			
				<image style="overflow:visible;" width="1024" height="683" xlink:href="74F94C41.jpg"  transform="matrix(0.458 0 0 0.458 6383 1018)">
			</image>
		</g>
		<g class="st21">
			
				<image style="overflow:visible;opacity:0.75;" width="207" height="144" xlink:href="74F94C43.png"  transform="matrix(1 0 0 1 6485 1158)">
			</image>
			<g>
				<rect x="6489" y="1165" class="st25" width="189" height="123"/>
				<text transform="matrix(1 0 0 1 6489 1182.6719)"><tspan x="0" y="0" class="st1" style="font-family:'Averta-Bold'; font-size:24px;">Food Art</tspan><tspan x="0" y="43.2" class="st1" style="font-family:'Averta-Semibold'; font-size:20px;">Fancy food that is </tspan><tspan x="0" y="67.2" class="st1" style="font-family:'Averta-Semibold'; font-size:20px;">too pretty to eat?</tspan></text>
			</g>
		</g>
	</g>
	<g>
		<defs>
			<path id="SVGID_9_" d="M6994.5,1326h-237c-3.6,0-6.5-2.9-6.5-6.5v-287c0-3.6,2.9-6.5,6.5-6.5h237c3.6,0,6.5,2.9,6.5,6.5v287
				C7001,1323.1,6998.1,1326,6994.5,1326z"/>
		</defs>
		<clipPath id="SVGID_10_">
			<use xlink:href="#SVGID_9_"  style="overflow:visible;"/>
		</clipPath>
		<g transform="matrix(1 0 0 1 4.882813e-04 0)" class="st22">
			
				<image style="overflow:visible;" width="630" height="472" xlink:href="74F94C5E.jpg"  transform="matrix(0.6524 0 0 0.6524 6704 1022)">
			</image>
		</g>
		<g class="st22">
			
				<image style="overflow:visible;opacity:0.75;" width="225" height="170" xlink:href="74F94C5F.png"  transform="matrix(1 0 0 1 6766 1158)">
			</image>
			<g>
				<rect x="6770" y="1165" class="st25" width="207" height="149"/>
				<text transform="matrix(1 0 0 1 6770 1182.6719)"><tspan x="0" y="0" class="st1" style="font-family:'Averta-Bold'; font-size:24px;">Traditional </tspan><tspan x="0" y="28.8" class="st1" style="font-family:'Averta-Bold'; font-size:24px;">Sweets</tspan><tspan x="0" y="72" class="st1" style="font-family:'Averta-Semibold'; font-size:20px;">Colourful cakes, </tspan><tspan x="0" y="96" class="st1" style="font-family:'Averta-Semibold'; font-size:20px;">snacks and desserts </tspan><tspan x="0" y="120" class="st1" style="font-family:'Averta-Semibold'; font-size:20px;">in the city</tspan></text>
			</g>
		</g>
	</g>
	<line class="st23" x1="5817" y1="1898" x2="7079" y2="1898"/>
	<line class="st23" x1="5817" y1="2288" x2="7079" y2="2288"/>
	<g>
		<g>
			<circle class="st2" cx="6384" cy="2734" r="20"/>
			<rect x="6373.5" y="2726" class="st25" width="21" height="29.5"/>
			<text transform="matrix(1 0 0 1 6379.8887 2740.7266)" class="st14" style="font-family:'Averta-Bold'; font-size:20px;">1</text>
		</g>
		<g>
			<circle class="st16" cx="6450" cy="2734" r="20"/>
			<rect x="6439.5" y="2726" class="st25" width="21" height="29.5"/>
			<text transform="matrix(1 0 0 1 6444.6875 2740.7266)" class="st17" style="font-family:'Averta-Bold'; font-size:20px;">2</text>
		</g>
		<g>
			<circle class="st16" cx="6516" cy="2734" r="20"/>
			<rect x="6505.5" y="2726" class="st25" width="21" height="29.5"/>
			<text transform="matrix(1 0 0 1 6510.5654 2740.7266)" class="st17" style="font-family:'Averta-Bold'; font-size:20px;">3</text>
		</g>
		<g>
			<rect x="6576.1" y="2727" class="st25" width="67.9" height="19"/>
			<text transform="matrix(1 0 0 1 6576.1055 2741.7266)" class="st17" style="font-family:'Averta-Regular'; font-size:20px;">Next</text>
		</g>
		<rect x="6252" y="2727" class="st25" width="78" height="19"/>
		<text transform="matrix(1 0 0 1 6252 2741.7266)" class="st33" style="font-family:'Averta-Regular'; font-size:20px;">Previou</text>
	</g>
	<g>
		<rect x="5808" y="2873.5" class="st24" width="1280" height="453"/>
		<rect x="5840.1" y="2947.7" class="st25" width="196.4" height="42"/>
		<text transform="matrix(0.9643 0 0 1 5840.1201 2974.1748)" style="font-family:'Averta-Regular'; font-size:36px;">LOGO</text>
		<g>
			<rect x="6868.1" y="2945" class="st25" width="149.9" height="53.5"/>
			
				<text transform="matrix(0.9643 0 0 1 6868.0898 2962.6533)" class="st14" style="font-family:'Averta-Semibold'; font-size:24px;">Community</text>
			<rect x="6868.1" y="3010.5" class="st25" width="166.9" height="87"/>
			<text transform="matrix(0.9643 0 0 1 6868.0898 3025.2285)"><tspan x="0" y="0" class="st17" style="font-family:'Averta-Regular'; font-size:20px;">Reviews</tspan><tspan x="0" y="48" class="st17" style="font-family:'Averta-Regular'; font-size:20px;">Blog</tspan></text>
		</g>
		<g>
			<rect x="6666.1" y="2945" class="st25" width="86.9" height="53.5"/>
			
				<text transform="matrix(0.9643 0 0 1 6666.0898 2962.6533)" class="st14" style="font-family:'Averta-Semibold'; font-size:24px;">Tours</text>
			<rect x="6666.1" y="3010.5" class="st25" width="127.9" height="87"/>
			
				<text transform="matrix(0.9643 0 0 1 6666.0898 3025.2285)" class="st17" style="font-family:'Averta-Regular'; font-size:20px;">All Tours</text>
		</g>
		<g>
			<rect x="6448.1" y="2945" class="st25" width="128.9" height="53.5"/>
			
				<text transform="matrix(0.9643 0 0 1 6448.0908 2962.6533)" class="st14" style="font-family:'Averta-Semibold'; font-size:24px;">Company</text>
			<rect x="6448.1" y="3010.5" class="st25" width="127.9" height="168.5"/>
			<text transform="matrix(0.9643 0 0 1 6448.0908 3025.2285)"><tspan x="0" y="0" class="st17" style="font-family:'Averta-Regular'; font-size:20px;">About Us</tspan><tspan x="0" y="48" class="st17" style="font-family:'Averta-Regular'; font-size:20px;">FAQ</tspan><tspan x="0" y="96" class="st17" style="font-family:'Averta-Regular'; font-size:20px;">Contact</tspan><tspan x="0" y="144" class="st17" style="font-family:'Averta-Regular'; font-size:20px;">Careers</tspan></text>
		</g>
		<g>
			<g>
				<rect x="5878" y="3153" class="st25" width="389.3" height="28"/>
				<text transform="matrix(0.9643 0 0 1 5878 3167.7285)" class="st17" style="font-family:'Averta-Regular'; font-size:20px;">contact@gomakan.sg</text>
				<g>
					<g>
						<path class="st17" d="M5861.2,3153.4H5843c-1.6,0-2.9,1.3-2.9,2.9v12.4c0,1.6,1.3,2.9,2.9,2.9h18.1c1.6,0,2.9-1.3,2.9-2.9
							v-12.4C5864.1,3154.7,5862.8,3153.4,5861.2,3153.4z M5862.8,3168.7c0,0.9-0.7,1.6-1.6,1.6H5843c-0.9,0-1.6-0.7-1.6-1.6v-12.4
							c0-0.9,0.7-1.6,1.6-1.6h18.1c0.9,0,1.6,0.7,1.6,1.6L5862.8,3168.7L5862.8,3168.7z"/>
						<path class="st17" d="M5855.2,3162.3l5.9-5.3c0.3-0.2,0.3-0.7,0-0.9c-0.2-0.3-0.7-0.3-0.9,0l-8.1,7.3l-1.6-1.4c0,0,0,0,0,0
							c0,0-0.1-0.1-0.1-0.1l-6.4-5.8c-0.3-0.2-0.7-0.2-0.9,0.1c-0.2,0.3-0.2,0.7,0.1,0.9l5.9,5.3l-5.9,5.5c-0.3,0.3-0.3,0.7,0,0.9
							c0.1,0.1,0.3,0.2,0.5,0.2c0.2,0,0.3-0.1,0.5-0.2l6-5.6l1.6,1.5c0.1,0.1,0.3,0.2,0.4,0.2c0.2,0,0.3-0.1,0.4-0.2l1.7-1.5l6,5.7
							c0.1,0.1,0.3,0.2,0.5,0.2c0.2,0,0.4-0.1,0.5-0.2c0.3-0.3,0.2-0.7,0-0.9L5855.2,3162.3z"/>
					</g>
				</g>
			</g>
			<g>
				<rect x="5878" y="3102.3" class="st25" width="230.6" height="25.7"/>
				<text transform="matrix(0.9643 0 0 1 5878 3117.0596)" class="st17" style="font-family:'Averta-Regular'; font-size:20px;">+65 81579012</text>
				<g>
					<g>
						<path class="st17" d="M5859,3112c-0.5-0.5-1.1-0.8-1.7-0.8c-0.6,0-1.2,0.3-1.7,0.8l-1.6,1.6c-0.1-0.1-0.3-0.1-0.4-0.2
							c-0.2-0.1-0.4-0.2-0.5-0.3c-1.5-1-2.9-2.2-4.2-3.8c-0.6-0.8-1.1-1.5-1.4-2.2c0.4-0.4,0.8-0.8,1.2-1.2c0.1-0.1,0.3-0.3,0.4-0.4
							c1.1-1.1,1.1-2.4,0-3.5l-1.4-1.4c-0.2-0.2-0.3-0.3-0.5-0.5c-0.3-0.3-0.6-0.6-1-0.9c-0.5-0.5-1.1-0.7-1.7-0.7
							c-0.6,0-1.2,0.3-1.7,0.7c0,0,0,0,0,0l-1.7,1.7c-0.6,0.6-1,1.4-1.1,2.4c-0.1,1.5,0.3,2.9,0.6,3.8c0.8,2.2,2,4.3,3.9,6.5
							c2.2,2.7,4.9,4.7,7.9,6.2c1.2,0.6,2.7,1.2,4.5,1.3c0.1,0,0.2,0,0.3,0c1.2,0,2.2-0.4,2.9-1.3c0,0,0,0,0,0
							c0.3-0.3,0.6-0.6,0.9-0.9c0.2-0.2,0.4-0.4,0.7-0.7c0.5-0.5,0.8-1.1,0.8-1.8c0-0.6-0.3-1.2-0.8-1.7L5859,3112z M5860.8,3117.4
							C5860.8,3117.4,5860.8,3117.4,5860.8,3117.4c-0.2,0.2-0.4,0.4-0.6,0.6c-0.3,0.3-0.7,0.6-1,1c-0.5,0.5-1.1,0.8-1.9,0.8
							c-0.1,0-0.2,0-0.2,0c-1.5-0.1-2.9-0.7-4-1.2c-2.9-1.4-5.4-3.4-7.5-5.9c-1.7-2.1-2.9-4-3.7-6.1c-0.5-1.3-0.6-2.2-0.6-3.2
							c0.1-0.6,0.3-1.1,0.7-1.5l1.7-1.7c0.2-0.2,0.5-0.4,0.8-0.4c0.3,0,0.6,0.2,0.7,0.4c0,0,0,0,0,0c0.3,0.3,0.6,0.6,0.9,0.9
							c0.2,0.2,0.3,0.3,0.5,0.5l1.4,1.4c0.5,0.5,0.5,1,0,1.6c-0.1,0.1-0.3,0.3-0.4,0.4c-0.4,0.4-0.8,0.8-1.3,1.2c0,0,0,0,0,0
							c-0.4,0.4-0.4,0.9-0.3,1.2c0,0,0,0,0,0c0.4,0.9,0.9,1.7,1.6,2.7l0,0c1.4,1.7,2.9,3.1,4.5,4.1c0.2,0.1,0.4,0.2,0.6,0.3
							c0.2,0.1,0.4,0.2,0.5,0.3c0,0,0,0,0.1,0c0.2,0.1,0.3,0.1,0.5,0.1c0.4,0,0.7-0.3,0.8-0.4l1.7-1.7c0.2-0.2,0.4-0.4,0.8-0.4
							c0.3,0,0.6,0.2,0.7,0.4c0,0,0,0,0,0l2.8,2.8C5861.3,3116.3,5861.3,3116.8,5860.8,3117.4z"/>
						<path class="st17" d="M5853,3102.9c1.3,0.2,2.5,0.9,3.5,1.8s1.6,2.2,1.8,3.5c0.1,0.3,0.3,0.6,0.7,0.6c0,0,0.1,0,0.1,0
							c0.4-0.1,0.6-0.4,0.6-0.8c-0.3-1.6-1-3.1-2.2-4.2c-1.2-1.2-2.6-1.9-4.2-2.2c-0.4-0.1-0.7,0.2-0.8,0.6
							S5852.6,3102.8,5853,3102.9z"/>
						<path class="st17" d="M5864,3107.8c-0.5-2.6-1.7-5.1-3.6-7s-4.3-3.2-7-3.6c-0.4-0.1-0.7,0.2-0.8,0.6c-0.1,0.4,0.2,0.7,0.6,0.8
							c2.4,0.4,4.5,1.5,6.2,3.2c1.7,1.7,2.8,3.9,3.2,6.2c0.1,0.3,0.3,0.6,0.7,0.6c0,0,0.1,0,0.1,0
							C5863.8,3108.5,5864.1,3108.1,5864,3107.8z"/>
					</g>
				</g>
			</g>
			<g>
				<rect x="5878" y="3025" class="st25" width="362" height="72"/>
				<text transform="matrix(0.9643 0 0 1 5878 3039.7285)"><tspan x="0" y="0" class="st17" style="font-family:'Averta-Regular'; font-size:20px;">2 Sims Close, #05-01 Gemini @ Sims </tspan><tspan x="0" y="24" class="st17" style="font-family:'Averta-Regular'; font-size:20px;">Singapore 387298</tspan></text>
				<g>
					<path class="st25" d="M5840.1,3022.2h24v24h-24V3022.2z"/>
					<path class="st17" d="M5852.1,3024.2c-3.9,0-7,3.1-7,7c0,5.3,7,13,7,13s7-7.8,7-13C5859.1,3027.3,5856,3024.2,5852.1,3024.2z
						 M5847.1,3031.2c0-2.8,2.2-5,5-5c2.8,0,5,2.2,5,5c0,2.9-2.9,7.2-5,9.9C5850,3038.4,5847.1,3034,5847.1,3031.2z"/>
					<circle class="st17" cx="5852.1" cy="3031.2" r="2.5"/>
				</g>
			</g>
		</g>
		<rect x="6078.7" y="3267" class="st25" width="738" height="23.5"/>
		<text transform="matrix(0.9643 0 0 1 6126.3389 3281.7266)" class="st14" style="font-family:'Averta-Regular'; font-size:20px;">Terms of Use     Privacy Policy     Cookie Policy     © Go Makan Lah! 2018</text>
	</g>
	<g>
		<rect x="6747" y="1455" class="st18" width="254" height="65"/>
		<rect x="6761.7" y="1479.8" class="st25" width="224.7" height="15.5"/>
		<text transform="matrix(0.9643 0 0 1 6805.4028 1494.484)" class="st1" style="font-family:'Averta-Bold'; font-size:20px;">Write a Review</text>
		<rect x="6531.7" y="1479.8" class="st25" width="189.3" height="15.5"/>
		<text transform="matrix(0.9643 0 0 1 6531.667 1494.484)" class="st17" style="font-family:'Averta-Semibold'; font-size:20px;">Done a tour with us?</text>
	</g>
	<g>
		<g>
			<g>
				<g>
					<path class="st2" d="M264.9,34.5c-90.4,0-163.6,73.2-163.6,163.6s73.2,163.6,163.6,163.6s163.6-73.2,163.6-163.6
						S355.2,34.5,264.9,34.5z M264.9,322.2c-68.4,0-124.1-55.7-124.1-124.1S196.4,73.9,264.9,73.9S389,129.6,389,198.1
						S333.3,322.2,264.9,322.2z"/>
				</g>
			</g>
			<g>
				<g>
					<path class="st2" d="M264.9,107.2c-50.1,0-90.9,40.8-90.9,90.9s40.8,90.9,90.9,90.9s90.9-40.8,90.9-90.9S315,107.2,264.9,107.2
						z"/>
				</g>
			</g>
			<g>
				<g>
					<path class="st2" d="M493.7,211.8V13c0-1.9-1.2-3.6-3-4.2c-1.8-0.6-3.8,0-5,1.5C460.9,43,447.4,82.9,447.4,124v72.7
						c0,8.3,6.8,15.1,15.1,15.1h6.3c-6.2,64.1-10.3,153.8-10.3,164.3c0,16.5,10.2,29.9,22.7,29.9s22.7-13.4,22.7-29.9
						C504,365.6,499.9,275.9,493.7,211.8z"/>
				</g>
			</g>
			<g>
				<g>
					<path class="st2" d="M76,172.4c12.6-7.6,21-21.4,21-37.2L90.8,33.2c-0.2-3.9-3.5-6.9-7.4-6.9c-4.2,0-7.6,3.5-7.4,7.7l4.1,81.7
						c0,4.6-3.7,8.3-8.3,8.3c-4.6,0-8.3-3.7-8.3-8.3l-2-81.7c-0.1-4.3-3.6-7.8-8-7.8s-7.8,3.4-8,7.8l-2,81.7c0,4.6-3.7,8.3-8.3,8.3
						c-4.6,0-8.3-3.7-8.3-8.3L30.9,34c0.2-4.2-3.1-7.7-7.4-7.7c-3.9,0-7.1,3-7.3,6.9L10,135.1c0,15.8,8.4,29.6,21,37.2
						c8.2,5,12.8,14.2,11.7,23.8c-7.1,64-11.9,168.6-11.9,179.9c0,16.5,10.2,29.9,22.7,29.9s22.7-13.4,22.7-29.9
						c0-11.4-4.8-115.9-11.9-179.9C63.3,186.6,67.8,177.3,76,172.4z"/>
				</g>
			</g>
		</g>
		<g>
			<g>
				<g>
					<circle class="st3" cx="265.2" cy="199.2" r="126.1"/>
				</g>
				<path class="st4" d="M224.9,254.6h-9.8c-3.6,0-6.6,2.9-6.6,6.6s2.9,6.6,6.6,6.6h9.8c3.6,0,6.6-2.9,6.6-6.6
					S228.6,254.6,224.9,254.6z"/>
				<g>
					<path class="st4" d="M215.8,228.4H196h-21.3c-3.6,0-6.6-2.9-6.6-6.6c0-3.6,2.9-6.6,6.6-6.6h10.2c3.6,0,6.6-2.9,6.6-6.6
						s-2.9-6.6-6.6-6.6h-45.8c0.5,24.2,7.9,46.7,20.2,65.6h27.3c3.6,0,6.6-2.9,6.6-6.6s-2.9-6.6-6.6-6.6h-2.8
						c-3.6,0-6.6-2.9-6.6-6.6s2.9-6.6,6.6-6.6H196h19.8c3.6,0,6.6-2.9,6.6-6.6S219.4,228.4,215.8,228.4z"/>
					<path class="st4" d="M358.8,114.8h-21.9c-3.6,0-6.6,2.9-6.6,6.6s2.9,6.6,6.6,6.6h10.5c3.6,0,6.6,2.9,6.6,6.6s-2.9,6.6-6.6,6.6
						h-18.9c-3.6,0-6.6,2.9-6.6,6.6s2.9,6.6,6.6,6.6h41.8c3.6,0,6.6,2.9,6.6,6.6s-2.9,6.6-6.6,6.6h-23.1c-3.6,0-6.6,2.9-6.6,6.6
						c0,3.6,2.9,6.6,6.6,6.6h42.6C386.2,155.4,375,132.7,358.8,114.8z"/>
				</g>
			</g>
			<g>
				
					<image style="overflow:visible;opacity:0.1;" width="130" height="138" xlink:href="74F94C41.png"  transform="matrix(1 0 0 1 216.4104 190.4104)">
				</image>
				<g>
					<path class="st5" d="M252.2,259.5c0,0,13.4,9.6,20.3-8.5c6.9-18.1-13.1-36.5-13.1-36.5l15.3-15.6l44.1,9.3
						c0,0,12.2,37.9-6.2,72.7s-78.8,29.1-87.7-10.6L252.2,259.5z"/>
				</g>
			</g>
			<g>
				<path class="st6" d="M259.3,214.5c0,0,20,18.4,13.1,36.5c-6.9,18.1-20.3,8.5-20.3,8.5c14.9,18.1,40.7,1.6,40.7-20
					s-14.8-39.8-14.8-39.8l0,0l-3.5-0.7L259.3,214.5z"/>
				<g>
					
						<image style="overflow:visible;opacity:0.1;" width="94" height="87" xlink:href="74F94C42.png"  transform="matrix(1 0 0 1 261.4104 145.4104)">
					</image>
					<g>
						<path class="st6" d="M331.1,203.5c-8.5-13.1-13.5-27.5-15.7-35c-13.4-0.7-32.3-3.6-44.7-14.4c-0.1,0.3-0.2,0.6-0.2,0.9
							c-0.6,10.7,0.6,20.8,6.1,28.8h0h0c0,0,5.8,5.2,0.1,16.2c20.2,9.4,42.6,8.5,52.2,7.6C330.9,207.4,332.2,205.2,331.1,203.5z"/>
					</g>
				</g>
			</g>
			<path class="st7" d="M296.8,206.3c0.8-0.9,1.1-2.1,0.6-3.3c-6.4-14.7-9.6-29.9-11.1-40c-5.2-1.9-10.1-4.5-14.4-7.9
				c-0.5-0.1-1-0.3-1.5-0.4c0,0.1,0,0.2-0.1,0.3c-0.6,10.7,0.6,20.8,6.1,28.8c0,0,5.8,5.2,0.1,16.2
				C283.2,203.1,290.2,205.1,296.8,206.3z"/>
			<g>
				
					<image style="overflow:visible;opacity:0.1;" width="105" height="130" xlink:href="74F94C46.png"  transform="matrix(1 0 0 1 248.4104 64.4104)">
				</image>
				<g>
					<path class="st5" d="M328.4,166.6c-24.6-32.9-2.7-67.9-26.8-85.7c-17.4-12.8-36.9-5.6-44.2-2.5c3.1-0.5,6.2-1.2,9.3,1
						c19.5,13.5,5.9,45.9,3.8,74c15,16.4,44.4,17.1,55.8,16.7C328.3,170.1,329.5,168.1,328.4,166.6z"/>
				</g>
			</g>
			<path class="st6" d="M275.2,75.7c-1.7-1-3.6-1.3-5-1.3c-5.7,0.9-10.1,2.8-12.9,4c3.1-0.5,6.2-1.2,9.3,1
				c19.5,13.5,5.9,45.9,3.8,74c4.3,4.7,9.7,8.1,15.6,10.5C287.5,129.5,299.7,90.8,275.2,75.7z"/>
			<path class="st5" d="M268.9,79.4c-8.7-6.8-18.8,4.1-18.8,4.1c0,0,0,0,0,0c19.8,0.8,14.1,24.3,12.1,36.4
				c-1.4,9-13.2,21.2-22.7,24.7c-6.4,7.7-8.1,14.1-8.1,14.1c26.6,3.7,25.4,32,25.4,32c8.6-8.6,20.7-6.9,20.7-6.9
				C259.8,154.3,293,98.3,268.9,79.4z"/>
			<path class="st6" d="M239.6,144.7c-6.4,7.7-8.1,14.1-8.1,14.1c6.9,1,12,3.6,15.6,7c3.2-13.8,9.7-28.3,13.9-41.5
				C257.4,132.4,247.6,141.7,239.6,144.7z"/>
			<path class="st5" d="M250.1,83.5l-15,7.8c-1,0.5-1.5,1.6-1.3,2.7l0.3,1.5c0.1,0.6-0.3,1.2-1,1.3c-3.3,0.3-12.3,1.3-16.7,3.6
				c-1.8,0.9-2.6,2.9-2.1,4.8l0.7,2.5c0,0-0.7,6.9,4.2,12.5c0.4,0.5,1.1,0.5,1.5,0c1.9-2.1,7.5-6.9,17.5-4.9
				c4.4,0.9,6.7,5.9,4.3,9.7c-2.1,3.3-6.4,6.1-15.5,5c-0.4,0-0.8,0.3-0.8,0.7v2l-2.4,1.6c-0.5,0.3-0.8,1-0.6,1.6
				c0.8,2.3,3.3,7.7,10.6,9.5c9.4,2.2,27.5-14.1,29.3-25.5C265.2,107.6,271.1,83.5,250.1,83.5z"/>
			<path class="st6" d="M259.2,296.1c-12.6-5.6-21.2-16.9-23.8-30l-10.6,4.2c6.7,30,42.8,40.6,68,28.9
				C281.7,301.8,269.6,300.6,259.2,296.1z"/>
			<g>
				<path class="st8" d="M265.2,325.3c29.8,0,57.2-10.3,78.7-27.6c-9.3-5-19.9-7.8-31.1-7.8c-10.9,0-21.2,2.6-30.2,7.3
					c-11,5.7-23.9,5.7-34.9,0c-9.1-4.7-19.3-7.3-30.2-7.3c-11.2,0-21.8,2.8-31.1,7.8C208.1,315,235.4,325.3,265.2,325.3z"/>
				<path class="st9" d="M242.9,310c0-4.9,1.8-9.4,4.7-12.9c-9-4.6-19.2-7.2-30.1-7.2c-11.2,0-21.8,2.8-31.1,7.8
					c17.6,14.1,39,23.5,62.4,26.6C245.2,320.7,242.9,315.6,242.9,310z"/>
				<path class="st10" d="M282.7,311.1c-11,5.7-23.9,5.7-34.9,0c-9.1-4.7-19.3-7.3-30.2-7.3c-6.5,0-12.7,0.9-18.6,2.7
					c19.3,11.9,42,18.8,66.3,18.8c24.3,0,47-6.9,66.3-18.8c-5.9-1.7-12.1-2.7-18.6-2.7C302,303.8,291.7,306.5,282.7,311.1z"/>
				<path class="st11" d="M242.9,310c0-0.4,0-0.7,0-1.1c-7.8-3.3-16.4-5.1-25.4-5.1c-6.5,0-12.7,0.9-18.6,2.7
					c14.9,9.2,31.8,15.4,49.9,17.7C245.2,320.6,242.9,315.6,242.9,310z"/>
			</g>
			<path class="st12" d="M243.4,118.1c-43.1,10.1-76.4,30.3-100.4,50c-2.5,10-3.9,20.4-3.9,31.1c0,2.9,0.1,5.7,0.3,8.5
				c36.7-55.9,79.3-78.8,104.8-88C244,119.1,243.7,118.6,243.4,118.1z"/>
			<path class="st1" d="M243.8,118.9c-0.1-0.3-0.3-0.5-0.5-0.8c-43.1,10.1-76.4,30.3-100.4,50c-1.2,4.8-2.1,9.6-2.8,14.6
				C179.4,143.2,218.2,126.2,243.8,118.9z"/>
			<path class="st6" d="M241.2,98.9l5.5,1.3c2.5,0.6,5.1-0.9,5.8-3.4l0.6-2.3c0.4-1.6-1.3-3-2.8-2.3L241,97
				C240.1,97.5,240.3,98.7,241.2,98.9z"/>
			<path class="st7" d="M248.4,96.6l-4.4-1.1l-3,1.5c-0.8,0.4-0.7,1.7,0.2,1.9l5.5,1.3c2.5,0.6,5.1-0.9,5.8-3.4l0.4-1.5
				C251.7,96.5,250,97,248.4,96.6z"/>
			<g>
				<path class="st6" d="M215.1,107.7c0,0-0.7,6.9,4.2,12.5c0.4,0.5,1.1,0.5,1.5,0c0.8-0.9,2.3-2.3,4.5-3.4c-2.9-5-2.2-7.9-1.4-9.4
					c0.4-0.8,0.6-1.7,0.4-2.6c-1.3-5.8,2.4-7.2,2.4-7.2h0c-3.6,0.6-7.6,1.5-10.2,2.8c-1.7,0.9-2.6,2.9-2,4.8L215.1,107.7z"/>
				<path class="st6" d="M234,145.4c3.3,0.8,7.8-0.8,12.2-3.6c-10.3,1.6-13.5-7.7-14.4-11.5c-1.4,0.1-3,0-4.7-0.2
					c-0.4,0-0.8,0.3-0.8,0.7v2l-2.4,1.6c-0.5,0.3-0.8,1-0.6,1.6C224.1,138.3,226.6,143.7,234,145.4z"/>
				<path class="st6" d="M319.2,244.7c-2.2,0-3.9-1.8-3.9-3.9c0-2-1.7-3.7-3.7-3.7c-2,0-3.7,1.7-3.7,3.7c0,2.2-1.8,3.9-3.9,3.9
					c-2.2,0-3.9-1.8-3.9-3.9c0-2-1.7-3.7-3.7-3.7c-2,0-3.7,1.7-3.7,3.7c0,6.2,5.1,11.3,11.3,11.3c2.9,0,5.6-1.1,7.6-3
					c2,1.8,4.7,3,7.6,3c0.9,0,1.7-0.1,2.6-0.3c0.4-3.1,0.7-6.1,0.8-9C321.9,243.9,320.6,244.7,319.2,244.7z"/>
				<path class="st6" d="M306.8,259.8c-2,0-3.7,1.7-3.7,3.7c0,2.2-1.8,3.9-3.9,3.9c-2.2,0-3.9-1.8-3.9-3.9c0-2-1.7-3.7-3.7-3.7
					c-2,0-3.7,1.7-3.7,3.7c0,6.2,5.1,11.3,11.3,11.3c6.2,0,11.3-5.1,11.3-11.3C310.5,261.4,308.9,259.8,306.8,259.8z"/>
			</g>
			<path class="st5" d="M277.5,183.8c0,0,10.2,10.2-12,32.3c0,0,21.7-4.3,26.3,15.4c0,0,7.7,10.5-2,20.2c0,0-1.7,7.6-11.8,9.6
				c0,0-5.3,5.1-16.4,0.8c-1-0.4-1.4-1.5-1-2.5c1.6-3.4,4.3-11.5-1.7-17.5c-2.3-2.3-6.3-1.9-8.1,0.8c-2.1,3.3-3.5,8.7,1.3,16.3
				l-27.3,10.8c0,0-1.7-16,4.9-32.3c6.5-15.9,6.3-49.5-23.8-73.4c-1-0.8-0.8-2.3,0.4-2.8c3.6-1.5,10.4-3.6,16.8-1.5
				c0,0,2.7-1.6,8.4-1.6c5.7,0,25.4,2.6,25.4,32C256.9,190.7,264.7,180.9,277.5,183.8z"/>
			<g>
				<path class="st6" d="M234.9,252.8c0.6-5.4,2-11.7,4.6-18.1c6.5-15.9,6.3-49.5-23.8-73.4c-0.6-0.5-0.7-1.2-0.5-1.8
					c-3.5,0.3-6.7,1.4-8.8,2.2c-1.2,0.5-1.4,2-0.4,2.8c30.1,23.9,30.3,57.5,23.8,73.4c-6.6,16.3-4.9,32.3-4.9,32.3l10.6-4.2
					C234.6,261.8,234.4,257.3,234.9,252.8z"/>
				<path class="st6" d="M262,238.1c-9.8-2.1-12.2,7.1-12.2,7.1l0,0c0.3-0.8,0.7-1.5,1.1-2.1c1.8-2.8,5.8-3.2,8.1-0.8
					c6,6,3.3,14,1.7,17.5C269,257.4,271.9,240.2,262,238.1z"/>
				<path class="st6" d="M277.5,183.8c-12.8-3-20.6,6.9-20.7,6.9c0-13.6-4.2-21.4-9.3-26c8.2,17,4.9,32.7,3.7,37.2
					c-0.1,0.4-0.3,0.9-0.4,1.3c-0.3,1,1.1,1.7,1.7,0.9c4.9-6.2,16.1-18,27.2-14.4C279.5,185.8,277.5,183.8,277.5,183.8z"/>
			</g>
		</g>
	</g>
</g>
<g id="Layer_2" class="st26">
	<g class="st27">
		<text transform="matrix(1 0 0 1 5854 -229)"><tspan x="0" y="0" class="st1" style="font-family:'Averta-Regular'; font-size:24px;">https://material.io/design/typography/the-type-system.html#type-scale</tspan><tspan x="0" y="28.8" class="st1" style="font-family:'Averta-Regular'; font-size:24px;">https://material.io/design/components/app-bars-top.html#specs</tspan></text>
		<g>
			<rect x="5678.5" y="337" class="st2" width="74" height="74"/>
			<rect x="5589.9" y="337" class="st28" width="74" height="74"/>
			<rect x="5678.6" y="249.3" class="st29" width="74" height="74"/>
			<rect x="5589.9" y="249.4" class="st30" width="74" height="74"/>
			<rect x="5678.6" y="161.9" class="st31" width="74" height="74"/>
			<rect x="5589.9" y="162" class="st32" width="74" height="74"/>
			<rect x="5678.6" y="74.3" class="st33" width="74" height="74"/>
			<rect x="5589.9" y="74.4" class="st17" width="74" height="74"/>
			<rect x="5678.6" y="-13.3" class="st14" width="74" height="74"/>
			<rect x="5589.9" y="-13.4" class="st34" width="74" height="74"/>
			<g>
				<rect x="5678.6" y="-99.9" class="st15" width="73.9" height="73.9"/>
			</g>
			<rect x="5589.8" y="-100" class="st18" width="74.1" height="74.1"/>
		</g>
		<path class="st1" d="M6756.5-218h-17c-1.9,0-3.5,1.6-3.5,3.5v17c0,1.9,1.6,3.5,3.5,3.5h17c1.9,0,3.5-1.6,3.5-3.5v-17
			C6760-216.4,6758.4-218,6756.5-218z M6748-200c-3.3,0-6-2.7-6-6s2.7-6,6-6s6,2.7,6,6S6751.3-200,6748-200z M6755.1-211
			c-1.2,0-2.1-0.9-2.1-2.1s0.9-2.1,2.1-2.1s2.1,0.9,2.1,2.1S6756.2-211,6755.1-211z"/>
	</g>
</g>
</svg>
