<?xml version="1.0" encoding="utf-8"?>
<!-- Generator: Adobe Illustrator 21.0.0, SVG Export Plug-In . SVG Version: 6.00 Build 0)  -->
<svg version="1.1" id="Layer_1" xmlns="http://www.w3.org/2000/svg" xmlns:xlink="http://www.w3.org/1999/xlink" x="0px" y="0px"
	 viewBox="0 0 625.6 376.5" style="enable-background:new 0 0 625.6 376.5;" xml:space="preserve">
<style type="text/css">
	.st0{fill:#EC4849;}
	.st1{fill:#FFFFFF;stroke:#BFC5D1;stroke-width:18.5279;stroke-miterlimit:10;}
	.st2{fill:url(#SVGID_1_);stroke:#BFC5D1;stroke-width:16.8173;stroke-miterlimit:10;}
	.st3{fill:#FFFFFF;}
	.st4{fill:none;stroke:#BFC5D1;stroke-width:18.5279;stroke-miterlimit:10;}
	.st5{fill:#EC4849;stroke:#636870;stroke-width:14.3118;stroke-miterlimit:10;}
</style>
<g>
	<g>
		<g>
			<rect x="101.8" y="147.6" class="st0" width="104.2" height="14.9"/>
		</g>
		<g>
			<rect x="57.1" y="147.6" class="st0" width="29.8" height="14.9"/>
		</g>
		<g>
			<rect x="146.4" y="192.3" class="st0" width="59.6" height="14.9"/>
		</g>
		<g>
			<rect x="116.7" y="192.3" class="st0" width="14.9" height="14.9"/>
		</g>
		<g>
			<rect x="72" y="192.3" class="st0" width="29.8" height="14.9"/>
		</g>
		<g>
			<rect x="12.4" y="192.3" class="st0" width="29.8" height="14.9"/>
		</g>
		<g>
			<rect x="131.6" y="237" class="st0" width="74.4" height="14.9"/>
		</g>
		<g>
			<rect x="86.9" y="237" class="st0" width="29.8" height="14.9"/>
		</g>
		<g>
			<rect x="57.1" y="237" class="st0" width="14.9" height="14.9"/>
		</g>
		<g>
			<rect x="5" y="237" class="st0" width="29.8" height="14.9"/>
		</g>
		<g>
			<rect x="27.3" y="147.6" class="st0" width="14.9" height="14.9"/>
		</g>
	</g>
	<g>
		<path class="st1" d="M576,200.2L484.2,292c-21.9,21.9-57.4,21.9-79.3,0l-91.8-91.8c-21.9-21.9-21.9-57.4,0-79.3l91.8-91.8
			c21.9-21.9,57.4-21.9,79.3,0l91.8,91.8C598,142.8,598,178.3,576,200.2z"/>
		<linearGradient id="SVGID_1_" gradientUnits="userSpaceOnUse" x1="533.6777" y1="364.662" x2="355.4688" y2="55.9952">
			<stop  offset="1.082549e-07" style="stop-color:#4C84FF"/>
			<stop  offset="0.1597" style="stop-color:#76A2FD"/>
			<stop  offset="0.3309" style="stop-color:#9BBCFB"/>
			<stop  offset="0.5024" style="stop-color:#B8D1FA"/>
			<stop  offset="0.6721" style="stop-color:#CCE0F9"/>
			<stop  offset="0.8389" style="stop-color:#D9E9F8"/>
			<stop  offset="1" style="stop-color:#DDECF8"/>
		</linearGradient>
		<path class="st2" d="M541.9,357.6H347.2c-8.2,0-14.8-6.7-14.8-14.8V77.9c0-8.2,6.7-14.8,14.8-14.8h194.7c8.2,0,14.8,6.7,14.8,14.8
			v264.9C556.7,351,550.1,357.6,541.9,357.6z"/>
		<path class="st1" d="M591.2,145.1c3.8,18-1.2,37.5-15.2,51.4l-78.2,78.2l77.2,72.3c4.2,3.9,1.4,11-4.3,11H318.5
			c-5.8,0-8.6-7.1-4.3-11l77.2-72.3l-78.2-78.2c-14-14-19-33.5-15.2-51.4c-11,10.2-17.9,24.6-17.9,40.7v121
			c0,30.7,24.9,55.6,55.6,55.6h217.8c30.7,0,55.6-24.9,55.6-55.6v-121C609.1,169.7,602.2,155.2,591.2,145.1z"/>
		<g>
			
				<image style="overflow:visible;opacity:0.5;" width="412" height="266" xlink:href="BBAE12B1.png"  transform="matrix(1 0 0 1 238.9342 124.34)">
			</image>
			<g>
				<path class="st3" d="M419.2,249.5L314.1,348c-4.2,3.9-1.4,11,4.3,11h252.2c5.8,0,8.6-7.1,4.3-11l-105.1-98.5
					C455.7,236.2,433.5,236.2,419.2,249.5z"/>
				<path class="st4" d="M419.2,249.5L314.1,348c-4.2,3.9-1.4,11,4.3,11h252.2c5.8,0,8.6-7.1,4.3-11l-105.1-98.5
					C455.7,236.2,433.5,236.2,419.2,249.5z"/>
			</g>
		</g>
		<path class="st5" d="M471.2,115.6c-12.8,0-23.5,8.8-26.6,20.6c0,0,0,0.1,0,0.1h0c0,0,0-0.1,0-0.1c-3-11.9-13.8-20.6-26.6-20.6
			c-15.1,0-27.4,12.3-27.4,27.4c0,3.7,0.7,7.2,2.1,10.4c1.2,2.9,2.9,5.6,5,7.9c0.9,1,1.8,1.9,2.8,2.7l44.2,42.6l0,0l0,0l44.2-42.6
			c1-0.8,1.9-1.7,2.8-2.7c2.1-2.3,3.8-5,5-7.9c1.3-3.2,2.1-6.7,2.1-10.4C498.6,127.9,486.3,115.6,471.2,115.6z"/>
	</g>
</g>
</svg>
