<svg id="Layer_2" data-name="Layer 2" xmlns="http://www.w3.org/2000/svg" viewBox="0 0 102.65 96.44"><defs><style>.cls-1{fill:#fff;}.cls-2{fill:none;stroke:#c32527;stroke-miterlimit:10;stroke-width:5px;}.cls-3{fill:#c32527;}</style></defs><title>Go-Makan-Lah-Logo</title><polygon class="cls-1" points="100.5 84.17 100.5 2.5 2.17 2.5 2.17 84.17 90.4 85.6 91.54 89.33 100.38 89.33 100.5 84.17"/><polygon class="cls-2" points="100.09 2.56 2.54 2.56 2.54 84.46 86.23 84.46 100.13 92.17 100.09 2.56"/><path class="cls-3" d="M24,22a7.23,7.23,0,0,1-1.61,5.16,6.32,6.32,0,0,1-4.77,1.93,6.19,6.19,0,0,1-4.55-1.85,5.41,5.41,0,0,1-1.47-2.92,25.08,25.08,0,0,1-.19-3.82,25.23,25.23,0,0,1,.19-3.82,5.41,5.41,0,0,1,1.47-2.92,6.21,6.21,0,0,1,4.56-1.85,6.28,6.28,0,0,1,4.49,1.64A6.55,6.55,0,0,1,24,17.32H20.72a2.87,2.87,0,0,0-3-2.47,2.71,2.71,0,0,0-2.12.9A4,4,0,0,0,14.8,18v4.94a4.06,4.06,0,0,0,.76,2.3,2.68,2.68,0,0,0,2.11.88A3,3,0,0,0,20,25.18a3.21,3.21,0,0,0,.76-2.25v-.64H17.67V19.52H24Z"/><path class="cls-3" d="M37.09,22.74a11.12,11.12,0,0,1-.28,2.82,4.44,4.44,0,0,1-1.11,2,5.06,5.06,0,0,1-3.84,1.52A5,5,0,0,1,28,27.55a4.44,4.44,0,0,1-1.11-2,11.17,11.17,0,0,1-.28-2.82q0-3.32,1.42-4.81a5,5,0,0,1,3.79-1.49,5,5,0,0,1,3.82,1.49Q37.09,19.42,37.09,22.74Zm-3.11,0a4.5,4.5,0,0,0-.7-3,1.92,1.92,0,0,0-1.43-.55,1.89,1.89,0,0,0-1.41.55q-.7.71-.7,3t.7,3a1.89,1.89,0,0,0,1.41.55,1.92,1.92,0,0,0,1.43-.55,4.45,4.45,0,0,0,.72-3Z"/><path class="cls-3" d="M27.32,50.61H24V40.76l-3.22,6.4H18.57l-3.25-6.4V50.6H12V33.72h3.24l4.39,9.13L24,33.72h3.3Z"/><path class="cls-3" d="M40.39,50.61h-3V49.54a4.11,4.11,0,0,1-3,1.19,4.19,4.19,0,0,1-3.13-1.07,3.83,3.83,0,0,1-1-2.8,3.37,3.37,0,0,1,1.08-2.57,4.42,4.42,0,0,1,3.13-1h2.91v-.62q0-1.94-2.29-1.94a3,3,0,0,0-2.36,1l-2-1.92a4.82,4.82,0,0,1,1.92-1.35,7.41,7.41,0,0,1,2.54-.36q5.26,0,5.26,4.36Zm-3.11-4.55V45.4H34.85q-1.72,0-1.72,1.4t1.77,1.42a2.36,2.36,0,0,0,2.1-.78A2.57,2.57,0,0,0,37.28,46Z"/><path class="cls-3" d="M54.93,50.61H51.12l-3-5.15-1.3,1.47v3.68H43.69V33.72H46.8V43.3l4.09-5H54.6l-4.41,5Z"/><path class="cls-3" d="M66.31,50.61h-3V49.54a4.11,4.11,0,0,1-3,1.19,4.19,4.19,0,0,1-3.13-1.07,3.83,3.83,0,0,1-1-2.8,3.37,3.37,0,0,1,1.08-2.57,4.42,4.42,0,0,1,3.13-1H63.2v-.62q0-1.94-2.29-1.94a3,3,0,0,0-2.36,1l-2-1.92a4.82,4.82,0,0,1,1.92-1.35A7.41,7.41,0,0,1,61,38.11q5.26,0,5.26,4.36ZM63.2,46v-.66H60.77q-1.72,0-1.72,1.4t1.77,1.42a2.36,2.36,0,0,0,2.1-.78A2.57,2.57,0,0,0,63.2,46Z"/><path class="cls-3" d="M79.88,50.61H76.77V43.14a2.24,2.24,0,0,0-.66-1.75,1.94,1.94,0,0,0-1.37-.5,2,2,0,0,0-1.39.5,2.24,2.24,0,0,0-.66,1.75v7.47H69.61V38.25h3v1.14a4.06,4.06,0,0,1,3.08-1.28,3.94,3.94,0,0,1,2.92,1.09,4.75,4.75,0,0,1,1.26,3.51Z"/><path class="cls-3" d="M23,72.34H12V55.46h3.3V69.4H23Z"/><path class="cls-3" d="M34.79,72.34h-3V71.27a4.11,4.11,0,0,1-3,1.19,4.19,4.19,0,0,1-3.13-1.07,3.83,3.83,0,0,1-1-2.8,3.37,3.37,0,0,1,1-2.59,4.42,4.42,0,0,1,3.13-1h2.91v-.6q0-1.94-2.29-1.94a3,3,0,0,0-2.36,1l-2-1.92a4.82,4.82,0,0,1,2-1.34,7.41,7.41,0,0,1,2.54-.36q5.26,0,5.26,4.36Zm-3.11-4.55v-.66H29.26q-1.72,0-1.72,1.4t1.77,1.42a2.36,2.36,0,0,0,2.1-.78,2.57,2.57,0,0,0,.28-1.38Z"/><path class="cls-3" d="M48.26,72.34h-3.1V64.8a2.18,2.18,0,0,0-.63-1.71,2,2,0,0,0-1.36-.47,1.9,1.9,0,0,0-1.34.47,2.23,2.23,0,0,0-.63,1.71v7.54H38.09V55.46H41.2v5.67a4,4,0,0,1,3-1.28,3.85,3.85,0,0,1,3.07,1.28,4.77,4.77,0,0,1,1,3.23Z"/><path class="cls-3" d="M59.1,67a2.33,2.33,0,0,0-1.22-1.37,1.21,1.21,0,0,1-.73-1.23c.44-3.3.74-8.68.74-9.27a1.42,1.42,0,1,0-2.83,0c0,.59.3,6,.74,9.27a1.21,1.21,0,0,1-.73,1.22A2.32,2.32,0,0,0,53.84,67a3.53,3.53,0,0,0-.27,1.41,5,5,0,0,0,.4,1.92,4.71,4.71,0,0,0,.39.75,3.61,3.61,0,0,0,.66.77,2.39,2.39,0,0,0,1,.52,1.94,1.94,0,0,0,1,0,2.39,2.39,0,0,0,1-.52,3.62,3.62,0,0,0,.65-.76,4.71,4.71,0,0,0,.39-.75,5,5,0,0,0,.4-1.92A3.53,3.53,0,0,0,59.1,67Z"/></svg>