<svg id="Layer_1" data-name="Layer 1" xmlns="http://www.w3.org/2000/svg" viewBox="0 0 728 432"><defs><style>.cls-1{fill:#2a2a2a;}</style></defs><title>blog-title</title><path class="cls-1" d="M110.56,63.23a1138.87,1138.87,0,0,1-30,208.34C73.4,301.39,66.43,332.71,53,360.45c-6,12.44-13.36,24.19-23.17,34-1.39,1.39-11,9.28,1.88,4.77,3.74-1.31-.87,4.76,1-1.29a69,69,0,0,0,3.06-23.5c-1.29-20.55-33.45-20.7-32.15,0,.92,14.64-6.64,27.06,1.29,41.32C12,428.55,27.33,434.43,40.57,427c11.84-6.67,21.34-19.51,28.82-30.54,7.76-11.44,13.6-24,18.76-36.76,11.38-28.22,18.52-58.35,25.4-87.93q11.11-47.77,18.14-96.37,8.07-55.81,11-112.14c1.06-20.68-31.1-20.62-32.15,0Z"/><path class="cls-1" d="M86.26,118c8.56-23.52,21.45-47.4,41.93-62.63,18.73-13.93,45.53-21.73,67.35-10.25C216.32,56.08,225,76.62,217.56,99c-8.07,24.17-28.39,45.26-46.67,62.24A266.23,266.23,0,0,1,95.28,210c-8,3.46-9.78,15.14-5.77,22,4.81,8.23,14,9.24,22,5.77a291.06,291.06,0,0,0,82.12-53.85c23.57-21.9,48.62-50,56.58-82,8.1-32.56-5.83-64.38-34.05-82C187.53,2,151.27,5.11,122.51,21c-34,18.72-54.37,53.11-67.25,88.52-3,8.16,3.34,17.61,11.23,19.77,8.95,2.46,16.79-3,19.77-11.23Z"/><path class="cls-1" d="M109.94,225.82c-.34-19.29,20.32-27.45,36.47-29.65A110,110,0,0,1,205,204.3c33.42,14.93,57.54,51,49.82,88.21-3.9,18.83-13.64,35.93-26.38,50.2-12.37,13.85-28.77,29.24-47.8,32.43-17.77,3-30-10.48-37.88-24.64-10.08-18.07-16.35-39.72-18.28-60.27-4-43.14,12.66-88,54.4-106.08,8-3.46,9.78-15.14,5.77-22-4.81-8.23-14-9.24-22-5.77-48.38,21-73,75.15-70.86,125.82,2,46.63,22.89,120.12,78.9,125.25,27.8,2.55,53.72-15.41,72.66-33.86,18.55-18.07,33.84-40.75,40.85-65.87,14.28-51.2-12.2-105.34-59-129.25-27.66-14.14-59.67-18.41-90.17-12.85-29.79,5.42-57.83,27.64-57.26,60.17.36,20.66,32.52,20.73,32.15,0Z"/><path class="cls-1" d="M327.87,20.9a944.28,944.28,0,0,0-14,181.58q.49,22.47,2.09,44.9c.91,12.7,1.58,25.73,6.56,37.6,11.28,26.9,42.86,33.93,65,15.4,6.66-5.58,5.76-17,0-22.73-6.59-6.59-16.06-5.59-22.73,0-4.93,4.13-10.48-.09-12.65-4.7-3.36-7.13-3.34-16.19-3.9-23.85q-2.71-37.08-2.4-74.29a897,897,0,0,1,13-145.37c1.48-8.55-2.28-17.32-11.23-19.77-7.74-2.13-18.29,2.63-19.77,11.23Z"/><path class="cls-1" d="M428.1,116c-31.81,32.12-62.62,76.33-47.94,124,11.71,38,52.65,60.45,91.11,53.95,37.9-6.41,64.41-45.5,61.93-82.9-2.68-40.46-36.53-69.46-76.17-71.57-20.77-1.1-43.11,6.56-56.49,22.94-15,18.33-19.48,44.11-2.41,62.67,14,15.26,36.72-7.52,22.73-22.73-5.65-6.15,1.68-17.57,7.15-22.37,8.1-7.11,19.69-9.17,30.17-8.27,22.12,1.89,42.3,18.56,43,41.62.65,22-13.42,45.19-36.19,49.21-20.83,3.67-44.81-8.38-52.86-28.25-14.57-35.95,15.27-71.84,38.72-95.52C465.41,124,442.68,101.26,428.1,116Z"/><path class="cls-1" d="M655.1,201.57c9.88-15.43,18.1-32.1,13.93-50.87-3.9-17.58-19.7-30.21-37.84-29-34.47,2.23-60.65,35.58-75.11,63.8-14.69,28.66-30.59,73,7,91.76,27.69,13.85,61.6,2.17,81.68-19.45,22.23-23.93,32-60.31,19.93-91.36-5.83-15-25.31-15.45-31,0-11.48,31.2-8.18,64.57-1.28,96.41,6.52,30.08,19.12,61.21,18.31,92.33-.29,11-3.14,22.88-12.46,29.64-6.34,4.6-16.67,7.57-22.35.47-7.34-9.18-2.67-23.49,1.9-32.64,6.86-13.76,15.64-26.76,24.47-39.31a442,442,0,0,1,70.49-77.72c15.59-13.66-7.22-36.32-22.73-22.73a476.35,476.35,0,0,0-74.64,83c-19.92,28.11-46.6,65.07-29.93,100.69,15.31,32.7,58.13,30.58,80.28,6.6,26.15-28.3,16.64-71.19,8.46-104.62-9.83-40.19-24.54-82.77-9.54-123.54h-31a57.66,57.66,0,0,1-10.88,59.24c-7.26,8.18-17,14.78-27.94,16.5-7.8,1.22-19.85.34-23-8.42-4.07-11.47,5.73-28.08,10.69-38.09,6.14-12.4,13.34-24.39,23.14-34.25,4.78-4.81,22.94-21.56,30.44-15.45,8.45,6.88-5.26,25.26-8.84,30.85C616.14,202.82,644,219,655.1,201.57Z"/></svg>