<svg id="Layer_1" data-name="Layer 1" xmlns="http://www.w3.org/2000/svg" xmlns:xlink="http://www.w3.org/1999/xlink" viewBox="0 0 1299 800"><defs><style>.cls-1{fill:url(#linear-gradient);}.cls-2,.cls-4{fill:#fff;}.cls-2,.cls-3{opacity:0.2;}</style><linearGradient id="linear-gradient" x1="-0.5" y1="400" x2="1299.5" y2="400" gradientUnits="userSpaceOnUse"><stop offset="0" stop-color="#f3565b"/><stop offset="1" stop-color="#fe7859"/></linearGradient></defs><title>subscribe-background</title><rect class="cls-1" x="-0.5" width="1300" height="800"/><circle class="cls-2" cx="1170.5" cy="661.5" r="188.5"/><path class="cls-2" d="M57.16,101a98.68,98.68,0,1,0,98.68,98.68A98.68,98.68,0,0,0,57.16,101Zm0,118.68a20,20,0,1,1,20-20A20,20,0,0,1,57.16,219.66Z"/><g class="cls-3"><path class="cls-4" d="M1252.45-43.09A104.55,104.55,0,1,0,1357,61.45,104.55,104.55,0,0,0,1252.45-43.09Zm0,192.52a88,88,0,1,1,88-88A88.07,88.07,0,0,1,1252.45,149.43Z"/><path class="cls-4" d="M1252.45-16.42a77.87,77.87,0,1,0,77.87,77.87A78,78,0,0,0,1252.45-16.42Zm0,131.57a53.7,53.7,0,1,1,53.7-53.7A53.7,53.7,0,0,1,1252.45,115.15Z"/></g></svg>