<svg id="Layer_1" data-name="Layer 1" xmlns="http://www.w3.org/2000/svg" viewBox="0 0 882 200"><defs><style>.cls-1{fill:#2a2a2a;}</style></defs><title>request-tour</title><path class="cls-1" d="M44.75,11a773.16,773.16,0,0,1,24.9,164.5c.26,6.06,9.12,6.06,9.42,0l.51-10.31c.3-6.06-9.12-6-9.42,0l-.51,10.31h9.42a785.36,785.36,0,0,0-25.23-167C52.29,2.63,43.2,5.11,44.75,11Z"/><path class="cls-1" d="M14.18,66.36c1.13-11.15,2.43-24.22,10.26-32.95S45,23.59,55.58,27.5c24.49,9,30.53,41.36,28.47,64.12A86.89,86.89,0,0,1,71.33,130c-3.45,5.43-7.84,10.62-13.26,14.17-2,1.31-4.62,3-5.92.2-1-2.22-.83-5.16-.6-7.52.47-4.76,2.4-10.51,7-12.82,4.93-2.5,10.72.06,14.5,3.49,9.46,8.57,9.8,23.8,14.76,34.91,5.55,12.43,17,21.59,31.2,18.36,13.58-3.09,21.18-17.35,17.82-30.51-1.5-5.87-10.58-3.38-9.08,2.5,3.69,14.42-13.42,25.36-24.76,15.39-11-9.64-10.44-27.05-17.12-39.25-6.07-11.07-20.81-20.24-33-12.5-9.75,6.21-14.3,22.85-8.62,33.11C52.83,165,70.93,146.66,77,138.38c9.15-12.52,14.21-28,16.11-43.31C96.43,68.29,89,32.3,61.84,20c-13.47-6.12-30.07-5.65-41.58,4.35-11.9,10.34-14,27.32-15.5,42-.61,6,8.81,6,9.42,0Z"/><path class="cls-1" d="M125.49,131.56a69,69,0,0,0,16.88-15.84c3.59-4.9,6.13-12.62,1.34-17.66-5.11-5.38-13.7-3-18.82,1s-8.32,10.18-9.91,16.41c-3.16,12.46-.86,27.9,9.73,36.24,10.92,8.59,26.47,6.12,37-1.84,13.87-10.49,17.75-28.52,19.7-44.83.72-6-8.71-6-9.42,0-1.52,12.76-4.39,27.66-14.73,36.42-8.43,7.14-22.81,9.6-30-.55-6.27-8.84-5.67-24,1.27-32.38,1.59-1.91,3.95-3.87,6.53-4.14,3.41-.36,1.45,3.07.37,4.84-3.47,5.67-9.27,10.47-14.69,14.19-5,3.41-.26,11.57,4.75,8.13Z"/><path class="cls-1" d="M231.28,105.24c1.17-4.83,4.65-12.42.35-16.62-3.52-3.44-9.65-2.63-14-1.92a39.67,39.67,0,0,0-25.65,16.52c-5.85,8.34-9.13,21-2.14,29.64,5.76,7.09,16.49,9.3,24.88,6.13,11.88-4.48,17.45-17,19-28.78h-9.42a591.65,591.65,0,0,0,.18,82.18,4.75,4.75,0,0,0,8.77,2.38l24.58-36.66c3.38-5-4.77-9.77-8.13-4.75L225.06,190l8.77,2.38a591.65,591.65,0,0,1-.18-82.18c.42-6.17-8.67-5.84-9.42,0-1,7.92-5.15,17.56-13.41,20.18-6.89,2.19-15.79-1.48-15.58-9.53.22-8.63,6.49-16.64,13.6-21a29.06,29.06,0,0,1,11.64-4.17,24.44,24.44,0,0,1,3.32-.16l1.11,0q1.7.45-.69-1.28c-.33,0-1.92,8-2,8.42-1.42,5.89,7.66,8.4,9.08,2.5Z"/><path class="cls-1" d="M230.47,88.73a70.79,70.79,0,0,0,3.8,33.64c3.36,9,9.09,19.81,20.15,19.86S270,130,273.15,121.42a87.59,87.59,0,0,0,5.25-33.63c-.22-6.06-9.16-6.06-9.42,0-.68,16.21-5.44,36.49,9.23,48.33,5.7,4.6,13.4,6.67,20.34,3.72,6.57-2.79,11.48-9.56,10.64-16.87-.68-6-10.1-6-9.42,0a8,8,0,0,1-8,8.88c-4.95,0-9.25-3.64-11.58-7.75-6.11-10.79-2.28-24.68-1.79-36.31H269A80,80,0,0,1,266,113a74.76,74.76,0,0,1-4.41,11.71c-1.43,3-3.21,8.09-7.17,8.06-7.47-.05-11-12-12.62-17.6a64.66,64.66,0,0,1-1.91-26.49c.76-6-8.66-5.94-9.42,0Z"/><path class="cls-1" d="M301.88,114.21c11.7,1.34,23.76-5.52,29-16,2.34-4.66,4.24-11.09,1.18-15.88-4.06-6.35-11-2.46-15.33,1.23-9.1,7.78-14.9,20.28-13.16,32.31,1.72,11.83,11.32,21,23.75,18,6.84-1.63,12.5-6.32,17.81-10.67,6-4.92,12.18-9.73,18-14.84,8.55-7.44,17.63-19.39,11.67-31.17-6.9-13.64-23-4.54-29.65,4.35-3.74,5-4.48,11.48-1,16.82,3.36,5.08,9,7.78,14.22,10.6,7,3.84,14.58,8.2,20.26,13.94,5.18,5.23,6.91,13-1,16.45-4.92,2.12-13.49,3.74-18-.2-2.65-2.35-3-6.45-3.38-9.76-.33-3.15-.88-6.92,1.76-9.19,4.61-4-2.08-10.58-6.66-6.66-4,3.4-5,8.61-4.7,13.62.27,5.23.91,11.12,3.82,15.6,5.7,8.76,17.43,9.17,26.57,6.66,10.33-2.84,17.93-11,14.87-22.29s-15.16-18.27-24.43-23.79c-4.53-2.7-10.11-4.73-14-8.39-4.26-4-1.34-8,2.38-11.21,3.07-2.68,9-7.19,10.88-1.14,1.38,4.35-1.06,9-3.69,12.36-3.39,4.34-7.92,7.8-12.15,11.26-5.12,4.19-10.16,8.5-15.38,12.56-4.17,3.24-10.11,7.61-15.74,5.94-3.91-1.16-5.95-5-6.84-8.75-1.25-5.2-.12-10.7,2.2-15.44a31.18,31.18,0,0,1,5-7.42,33.52,33.52,0,0,1,3-2.92c.3-.25,1.25-.78,1.41-1.11q1.4-.63-.66-1.66l.09.5c-.36.67-.32,2.33-.56,3.13a16.55,16.55,0,0,1-1.41,3.33,20.82,20.82,0,0,1-5.09,6,20.21,20.21,0,0,1-15.31,4.35c-6-.69-6,8.73,0,9.42Z"/><path class="cls-1" d="M400.5,62.8A462,462,0,0,0,419,172.21c1.21,4.07,8.39,4.87,9.08,0l.82-5.79c.36-2.54-.62-5-3.29-5.79-2.2-.63-5.43.77-5.79,3.29l-.82,5.79h9.08A451.09,451.09,0,0,1,409.92,62.8c-.29-6-9.71-6.07-9.42,0Z"/><path class="cls-1" d="M394.87,133.72a159.86,159.86,0,0,1,55.54-21.4c6-1.09,3.43-10.17-2.5-9.08a167.11,167.11,0,0,0-57.79,22.35c-5.14,3.19-.42,11.33,4.75,8.13Z"/><path class="cls-1" d="M583.21,98.35a57.7,57.7,0,0,0-32.95,10c-9.49,6.53-18.21,16.36-20,28.11-1.59,10.6,3.48,22,14.1,25.52,9.52,3.16,20.65-1.33,27.17-8.47,9.3-10.2,10.37-24.91,11.1-38,.29-5.22-8.34-6.52-9.25-1.25-2.17,12.63-4,28,6.66,37.58,8.11,7.34,21.71,7.07,27.68-2.84,3.14-5.2-5-9.94-8.13-4.75-3.63,6-11.8,3.19-15.1-1.55-5.25-7.54-3.48-17.5-2-25.94l-9.25-1.25c-.6,10.72-1,24-9.08,32.12-6.13,6.2-18.38,9.33-23.18-.12-5.38-10.59,3.13-22.16,11-28.73a48.29,48.29,0,0,1,31.21-11c6.06,0,6.07-9.37,0-9.42Z"/><path class="cls-1" d="M682.27,51a265.37,265.37,0,0,1,63.39-14.36c6-.59,6-10,0-9.42A275.35,275.35,0,0,0,679.77,42c-5.66,2-3.22,11.13,2.5,9.08Z"/><path class="cls-1" d="M708.6,47.42a893,893,0,0,0-3.88,119.21h9.42l-.23-3.81c-.37-6-9.79-6.06-9.42,0l.23,3.81c.37,6,9.62,6.1,9.42,0A893,893,0,0,1,718,47.42c.6-6-8.82-6-9.42,0Z"/><path class="cls-1" d="M743.33,106.22c-7.2.93-10.43,6.95-13,13.12s-4.2,13.2-2.83,20c2.61,12.88,16.61,19.44,28.71,15.82,12.5-3.74,20.05-17.3,19.6-29.9s-9-25.1-22.74-23.93c-15.46,1.32-27.38,17.22-27,32.19.17,6,9.58,6.07,9.42,0-.28-10.11,8.36-23.54,19.74-22.86s12.64,15.73,9.59,23.92c-3.42,9.2-14.56,16.31-23.7,9.76-4.41-3.16-5.34-8.69-4.5-13.76a34,34,0,0,1,2.54-8.2c.58-1.3,2.5-6.54,4.18-6.76,5.93-.76,6-10.19,0-9.42Z"/><path class="cls-1" d="M780.44,97.12c-3.34,12.06-6.72,25.05-3.12,37.47,2.75,9.49,9.89,19.14,20.14,21.08,11.27,2.13,18.1-7.63,21.77-16.8a81.13,81.13,0,0,0,5.31-37c-.45-5.19-7.57-6.51-9.25-1.25-4.14,12.94-4.23,27.66.89,40.37,2.11,5.24,5.76,10.31,11.65,11.46,4.91,1,10.62-1.11,12.66-5.93,1-2.36.69-5-1.69-6.44-2-1.18-5.45-.65-6.44,1.69-1.21,2.85-4.21,1.12-5.6-.73-2.4-3.2-3.36-7.68-4.14-11.52a52.56,52.56,0,0,1,1.75-26.39l-9.25-1.25a74.61,74.61,0,0,1-2.67,27.85c-1.72,5.79-5.49,18.69-13.82,16.54-7.43-1.92-11.54-10.12-12.92-17-2-9.87,1.19-20.19,3.8-29.64,1.62-5.85-7.46-8.34-9.08-2.5Z"/><path class="cls-1" d="M832.86,100.44a164,164,0,0,0,5.86,52.86c1.44,5.15,9.13,4.06,9.25-1.25.21-9.68.59-20.08,5.57-28.68,4-6.9,12-12.7,20.25-10.94,5.91,1.25,8.44-7.82,2.5-9.08-11.39-2.42-22.2,3.22-28.94,12.33-7.64,10.34-8.54,24-8.8,36.36l9.25-1.25a155.58,155.58,0,0,1-5.52-50.36c.32-6.06-9.09-6-9.42,0Z"/></svg>