<?xml version="1.0" encoding="UTF-8" standalone="no"?>
<!-- Generator: Adobe Illustrator 18.0.0, SVG Export Plug-In . SVG Version: 6.00 Build 0)  -->

<svg
   xmlns:dc="http://purl.org/dc/elements/1.1/"
   xmlns:cc="http://creativecommons.org/ns#"
   xmlns:rdf="http://www.w3.org/1999/02/22-rdf-syntax-ns#"
   xmlns:svg="http://www.w3.org/2000/svg"
   xmlns="http://www.w3.org/2000/svg"
   xmlns:sodipodi="http://sodipodi.sourceforge.net/DTD/sodipodi-0.dtd"
   xmlns:inkscape="http://www.inkscape.org/namespaces/inkscape"
   version="1.1"
   id="Layer_1"
   x="0px"
   y="0px"
   viewBox="0 0 500 145.80499"
   enable-background="new 0 0 137.623 57.362"
   xml:space="preserve"
   inkscape:version="0.91 r13725"
   sodipodi:docname="DBS Bank.svg"
   width="500"
   height="145.80499"><metadata
   id="metadata15"><rdf:RDF><cc:Work
       rdf:about=""><dc:format>image/svg+xml</dc:format><dc:type
         rdf:resource="http://purl.org/dc/dcmitype/StillImage" /><dc:title></dc:title></cc:Work></rdf:RDF></metadata><defs
   id="defs13" /><sodipodi:namedview
   pagecolor="#ffffff"
   bordercolor="#666666"
   borderopacity="1"
   objecttolerance="10"
   gridtolerance="10"
   guidetolerance="10"
   inkscape:pageopacity="0"
   inkscape:pageshadow="2"
   inkscape:window-width="1366"
   inkscape:window-height="705"
   id="namedview11"
   showgrid="false"
   inkscape:zoom="1.1553301"
   inkscape:cx="292.42729"
   inkscape:cy="-5.7198944"
   inkscape:window-x="-8"
   inkscape:window-y="-8"
   inkscape:window-maximized="1"
   inkscape:current-layer="Layer_1" />

<rect
   x="24.254845"
   y="24.26935"
   width="97.272507"
   height="97.272507"
   id="rect5"
   style="clip-rule:evenodd;fill:#ffffff;fill-rule:evenodd" />
<path
   d="m 134.85462,72.891873 0,-0.01373 c 0,-9.583543 0.39359,-18.13276 7.50116,-33.226609 2.07323,-4.370719 6.60413,-10.787208 -0.0824,-18.219717 -5.41877,-5.418776 -11.62016,-4.508019 -15.77577,-2.132728 2.38444,-4.155615 3.29062,-10.3570015 -2.13731,-15.7803515 -7.44623,-6.69109 -13.84442,-2.15561 -18.23344,-0.10069 C 91.065042,10.553077 82.502095,10.951247 72.891092,10.951247 l -0.0092,0 c -9.60185,0 -18.155643,-0.39359 -33.226614,-7.5331995 -4.370719,-2.05034 -10.791785,-6.58582 -18.219717,0.10069 -5.418776,5.42793 -4.521749,11.6247365 -2.146458,15.7803515 -4.164768,-2.389021 -10.352424,-3.286048 -15.775776,2.132728 -6.6865126,7.432509 -2.1464575,13.848998 -0.08238,18.219717 7.107566,15.093849 7.492006,23.629336 7.492006,33.240339 l 0,0 c 0,9.606427 -0.38444,18.178527 -7.492006,33.244927 -2.0640775,4.37529 -6.6041326,10.79178 0.08238,18.24717 5.4279287,5.40047 11.611008,4.48514 15.775776,2.12815 -2.384444,4.15104 -3.290625,10.34327 2.146458,15.77578 7.427932,6.69109 13.844422,2.15561 18.219717,0.0686 15.070971,-7.10299 23.615611,-7.50116 33.235768,-7.50116 l 0,0 c 9.611003,0 18.17395,0.39817 33.226604,7.50116 4.39818,2.08696 10.79637,6.62244 18.2426,-0.0686 5.41878,-5.43708 4.52175,-11.62474 2.12816,-15.77578 4.16476,2.3753 10.37073,3.28605 15.78492,-2.12815 6.68652,-7.45539 2.15562,-13.87188 0.0824,-18.2426 -7.10752,-15.080123 -7.50111,-23.638493 -7.50111,-33.249497 z M 118.36946,118.48465 83.060459,88.855293 c 0,0 -4.764312,-4.654472 -10.173934,-4.654472 -5.391316,0 -10.183087,4.654472 -10.183087,4.654472 L 27.412746,118.48465 27.280022,118.37481 56.932259,83.074961 c 0,0 4.649895,-4.778042 4.649895,-10.183088 0,-5.395892 -4.649895,-10.160204 -4.649895,-10.160204 l -29.652237,-35.3273 0.132724,-0.118993 35.299845,29.643078 c 0,0 4.782618,4.663625 10.173934,4.663625 5.409622,0 10.173934,-4.663625 10.173934,-4.663625 l 35.290691,-29.629348 0.11442,0.114416 -29.606472,35.318147 c 0,0 -4.663625,4.764312 -4.663625,10.160204 0,5.405046 4.663625,10.183088 4.663625,10.183088 l 29.606472,35.299849 -0.0961,0.10984 z"
   id="path7"
   inkscape:connector-curvature="0"
   style="fill:#cc0000" />
<path
   d="m 490.31529,8.4203475 1.25858,-0.0137 0.45767,23.1213295 -1.40504,-0.01831 c -2.27918,-9.382171 -11.32726,-18.28379 -29.45544,-19.22658 -21.44625,-1.11213 -30.73231,11.661347 -30.82842,23.725445 -0.12357,16.086986 12.38904,19.400494 30.93826,23.913089 8.75974,2.132728 41.16256,6.370722 38.57216,42.791849 -1.8032,25.43713 -23.75748,37.54242 -54.84678,36.56301 0,0 -12.9062,-0.44394 -30.96574,-5.43708 -3.37758,-0.93364 -4.21969,0.19222 -5.60642,2.65904 l -1.44622,0.0778 0.0458,-24.952 1.43708,0.0915 c 0.73226,2.52632 0.91075,7.2174 5.46912,11.23114 3.37758,2.92907 11.17164,10.19224 28.36161,10.36616 16.87874,0.21052 30.84673,-6.9245 32.74147,-25.79411 0.50801,-5.10756 -0.0732,-16.746031 -11.43251,-22.073273 -8.89246,-4.169345 -33.57443,-6.919923 -45.56988,-17.400494 0,0 -14.19682,-9.87645 -11.94053,-28.352457 3.16248,-26.077859 24.91996,-32.5996085 44.47149,-33.0160885 0,0 17.51947,-0.16018 31.44628,3.4553895 0,0 3.44165,0.91991 6.31122,-0.1601895 1.10298,-0.38901 1.66591,-1.11213 1.98628,-1.55149 z M 368.01299,68.470812 c 31.79411,7.890176 33.71632,30.837592 33.25407,37.281548 -1.41419,28.71859 -25.80783,32.01379 -35.6019,32.01379 l -74.98871,0 0.0824,-1.45996 c 5.44165,-0.72311 9.52862,-3.7254 9.52862,-13.28149 l 0.45767,-98.924686 c 0.11441,-10.750597 -2.7277,-14.009177 -8.67279,-14.7048365 l -0.10526,-1.36842 56.71865,0 c 10.39361,0 41.72548,-2.07781 44.38911,26.7368945 2.12357,23.048099 -23.19456,32.704869 -25.06184,33.70716 z m 8.34784,37.464608 c 0.58124,-27.862758 -19.86274,-35.258654 -41.04814,-36.421128 -0.4302,-0.02746 -0.26087,-1.089247 0.0549,-1.13959 6.89247,-0.265447 34.25179,-3.437078 33.10762,-29.565275 -1.10755,-25.43712 -20.41652,-26.00005 -27.47831,-26.09159 -5.75745,-0.0595 -7.01604,-0.0595 -9.42794,0.0412 -4.08697,0.16019 -5.11214,0.45309 -5.09383,4.924498 0,0.57666 -0.91076,45.844485 -1.44165,77.661484 -0.27003,17.299811 -0.31122,30.659101 -0.31122,30.659101 0.0732,3.13502 -0.32952,6.36157 7.48285,6.73686 8.07325,0.39817 18.46686,0.70938 25.73461,-0.8238 6.6499,-1.43707 18.02292,-6.27919 18.42109,-25.98175 z M 226.93261,8.0221775 c 27.00234,-0.13272 62.56306,18.4027845 62.43949,64.6820525 -0.11442,40.25638 -29.14881,65.04819 -56.04589,65.04819 l -68.12371,0.0137 0.0824,-1.44623 c 3.85356,-0.64988 8.10528,-3.05721 8.83297,-5.61099 2.25172,-9.71169 1.77117,-98.444139 0.36614,-113.043711 -0.43021,-4.562942 -4.01374,-7.505732 -8.44853,-8.2288515 l -0.0824,-1.41877 c 0,0.005 54.92002,0.0366 60.97953,0.005 z M 239.28504,129.34966 c 12.06867,-4.33411 27.06641,-24.96573 24.59044,-57.492114 -2.38903,-31.469169 -14.40278,-56.155718 -46.32047,-58.471509 0,0 -6.0412,-0.43479 -11.11215,-0.4714 -5.42335,-0.0275 -6.62244,-0.20137 -6.99772,5.569805 -0.72312,10.851281 -0.93822,95.460148 -0.22426,107.689008 0.10526,1.66133 0.28375,5.69795 7.26775,6.3753 12.72314,1.24943 23.25863,0.25629 32.79641,-3.19909 z"
   id="path9"
   style="fill:#000000"
   inkscape:connector-curvature="0" />
</svg>