<svg id="Layer_1" data-name="Layer 1" xmlns="http://www.w3.org/2000/svg" viewBox="0 0 427 360"><defs><style>.cls-1{fill:#f5f9f8;}.cls-2{fill:#fcccbb;}.cls-3{fill:#f74259;}.cls-4{fill:#efb13c;}.cls-5{fill:#ccc;}.cls-6{fill:#e6e6e6;}</style></defs><title>main_03</title><path class="cls-1" d="M300.34,102.12c17-1.56,45.66-3.63,62.34-.15,15.19,3.17,30.46,8.71,41.5,19.62,13.14,13,18.68,32.37,17.48,50.79s-8.54,36-18.11,51.79c-32.7,53.94-71.3,90.19-129.32,114.94-18,7.69-52,17.07-71.61,15.77s-41-15.08-57.73-25c-13-7.65-49-39.49-59.21-50.57-27.15-29.56-34.82-41.39-53.21-76.21-7.73-14.63-17.54-36.91-20.37-53.21-7-40.27-.4-62.4,23-95.91,7.43-10.65,35.27-29.91,47.3-34.82,7.19-2.93,21-5.6,28.73-6.07C129.52,12,148.48,11,165.88,17c9.32,3.25,17.85,8.43,25.89,14.16,18.86,13.44,35.3,30,53.32,44.52s28.33,21.76,51.13,25.88Z"/><path class="cls-2" d="M250.73,133.49H183.1a50.92,50.92,0,0,0-50.77,50.77v59.62a50.89,50.89,0,0,0,48.13,50.64,22,22,0,0,1-1.5,5.14c-2.81,6.47-5.27,8.74-10.05,13.94-2.61,2.83-10.87,7.68-13.46,8.11,9.45,5.84,18.09,10,27.37,12.33,27,6.78,56,3.05,81.89-7,5.07-2,9.8-5.64,13.7-9.44-9.51-1.81-21.64-4.91-26.78-13.25a26.25,26.25,0,0,1-3.54-9.67h2.65a50.92,50.92,0,0,0,50.77-50.77V184.26A50.92,50.92,0,0,0,250.73,133.49Z"/><path class="cls-3" d="M327.51,150.52c.14-.33.27-.62.41-.93,7.67-4.79,11.69-14.69,11.69-25.38A27.45,27.45,0,0,0,312.4,97a26.28,26.28,0,0,0-8.17,1.31,11,11,0,0,1-2.32-1.19c-3.13-2.17-4.54-6-6-9.52-3.69-9.08-9-17.94-17.19-23.3A32.55,32.55,0,0,0,242,65.78a31.8,31.8,0,0,0-57.13,1.68l-.72.64a28.07,28.07,0,0,0-49,15.06c-.52,4.23-.43,9.26-3.89,11.73-1.6,1.15-3.64,1.44-5.56,1.86C107.44,100.82,95,122,100.28,140c.74,2.51,1.75,5.28.57,7.61-.78,1.53-2.33,2.47-3.75,3.44a37.1,37.1,0,0,0,1,62c-4.24,12.41-6.86,27.44,1.46,37.57,5.79,7,15.32,9.62,24.27,11.4a7.93,7.93,0,0,1,4.32,1.8c1.1,1.14,1.4,2.82,1.73,4.37A41.51,41.51,0,0,0,184,298.75c-21.22-11.25-18.83-47.7-41-57,8.82-2.84,18.84-6.84,21.54-15.7,2.12-6.93-1.17-14.33-.88-21.57a5.77,5.77,0,0,1,.83-3.15c1-1.34,2.71-1.77,4.32-2.11,11.55-2.47,24.51-6.58,29.29-17.38,5.89,3.07,11.88,6.18,18.4,7.43s13.77.38,18.9-3.84a31.11,31.11,0,0,0,30.71,16.5c-5.52,17.2,6.06,37.88,23.62,42.14-6.38,3.51-8.57,11.36-11.4,18.07a63.91,63.91,0,0,1-29.07,31.58c12.46,3.25,26.59,6.13,37.48-.74,9.27-5.85,13.41-17.24,15.14-28.07a29.82,29.82,0,0,0,30.49-41.58c-1.23-2.83-2.95-5.79-2.23-8.79.53-2.2,2.27-3.86,3.89-5.44,5.59-5.43,10.8-11.56,13.35-18.92C352.77,174.58,343.21,155.51,327.51,150.52Z"/><path class="cls-4" d="M246.3,251.64c-2.21-2.38-4.43-4.77-6.84-6.95a19,19,0,0,0-3.25-2.46A12.46,12.46,0,0,0,227,241.1a14.53,14.53,0,0,0-7.74,5.24c-.52.68-1,1.4-1.46,2.13l-.82.14v0l-.87-.15c-.47-.72-.93-1.45-1.46-2.13a14.53,14.53,0,0,0-7.74-5.24,12.46,12.46,0,0,0-9.21,1.13,19,19,0,0,0-3.25,2.46c-2.42,2.18-4.63,4.56-6.84,6.95l-9.82,10.59A59.46,59.46,0,0,0,202,267.14a24.85,24.85,0,0,0,8.56-1.3,11.66,11.66,0,0,0,6.34-5.32,11.65,11.65,0,0,0,6.36,5.36,24.85,24.85,0,0,0,8.56,1.3,59.46,59.46,0,0,0,24.26-4.94Z"/><circle class="cls-3" cx="57.5" cy="267.91" r="3.21" transform="translate(-213.5 308.4) rotate(-86.38)"/><circle class="cls-4" cx="344.25" cy="311.36" r="5.07" transform="translate(-119.34 334.61) rotate(-45)"/><circle class="cls-3" cx="400.52" cy="118.87" r="6.19"/><circle class="cls-4" cx="10.74" cy="130.7" r="7.28"/><circle class="cls-3" cx="114.92" cy="12.1" r="7.37" transform="translate(25.1 84.81) rotate(-45)"/><rect class="cls-5" x="87.35" y="90.08" width="8.59" height="8.59" rx="4.29" ry="4.29" transform="translate(-39.68 86.69) rotate(-42.49)"/><path class="cls-5" d="M62,72.93c-5.65-6.65,7.35-17,12.23-5.64,3.4,7.95-.81,16,7.15,22,3.2,2.42,6.51-2.88,3.32-5.29-2.61-2-1.45-7.93-1.4-10.79a30.6,30.6,0,0,0-.83-8.87c-1.57-5.47-5.74-10.54-11.79-10.81C59.62,53,49,68,56.89,77.25c2.6,3.07,7.73-1.25,5.13-4.31Z"/><rect class="cls-6" x="351.67" y="221.14" width="8.29" height="8.29" rx="4.15" ry="4.15" transform="translate(222.29 -174.13) rotate(39.17)"/><path class="cls-6" d="M372.16,194c5.56-6.33,18.46,5,8.26,11.22-7.11,4.36-16.54,1.14-21.17,9.59-1.86,3.4,3.66,5.82,5.52,2.43,1.51-2.76,7.37-2.49,10.11-2.85a29.55,29.55,0,0,0,8.35-2c5-2.26,9.27-7,8.68-12.78-1.08-10.63-16.83-18.69-24.6-9.86-2.56,2.92,2.27,7.22,4.83,4.3Z"/></svg>