<svg id="Layer_1" data-name="Layer 1" xmlns="http://www.w3.org/2000/svg" viewBox="0 0 393 360"><defs><style>.cls-1{fill:#e8c47f;}.cls-2{fill:#fcd484;}.cls-3{fill:#faba49;}.cls-4{fill:#ededed;}.cls-5{fill:#ff3845;}.cls-6{fill:#333;opacity:0.12;}.cls-7{fill:#fff;opacity:0.3;}</style></defs><title>main_04</title><path class="cls-1" d="M19.34,91.89c27.45,16.45,57.55,31.87,89.52,30.59a113.31,113.31,0,0,1-57.18,9.39,28.84,28.84,0,0,1-10.13-2.42c-3.92-2-6.88-5.36-9.74-8.68-6.16-7.16-14.21-16.31-13.37-25.72Z"/><path class="cls-1" d="M291.79,135.89c31-7.78,63.22-18.16,84.93-41.67a113.31,113.31,0,0,1-33.79,47.07,28.84,28.84,0,0,1-8.87,5.46c-4.15,1.39-8.66,1.08-13,.75-9.42-.71-19.9-1.94-26-9.19Z"/><path class="cls-2" d="M378.92,59c-4.44,16.26-12.28,42.71-19.39,58-5.37,11.53-14.54,24.44-27.17,23-5.55-.64-10.37-4.09-14.44-7.91-27.15-25.41-30.77-67.6-53.37-97.13l-52.82,69.34c-6.34,8.32-14.66,17.55-25.05,16.37-6.38-.73-11.59-5.34-15.81-10.17-6.74-7.71-12.13-16.49-17.48-25.22L117.86,27.35Q99.93,63.84,79.76,99.17c-6.39,11.19-14.7,23.5-27.5,25-10.37,1.24-20.38-5.55-26-14.33s-7.84-19.29-9.91-29.53c-6.56,15.36-5.81,32.72-4.94,49.4,2,38.22,3.88,71,5.86,109.26,28.71-8.27,56-14.59,84.73-22.87,16.34-4.71,34-8.82,50.91-10.7a319.38,319.38,0,0,1,56-.86c19,1.35,31.94,2.5,50.91,3.85a337.44,337.44,0,0,1,44.49,6.85c30.42,7,55,9.52,83.37,22.43-.86-36.08-4.66-64.22-5.07-100.44-.29-24.81-.48-43.22-1.62-68.46Z"/><ellipse class="cls-3" cx="14.98" cy="80.95" rx="10.27" ry="19.68"/><ellipse class="cls-3" cx="118.31" cy="24.26" rx="10.49" ry="20.11"/><ellipse class="cls-3" cx="264.83" cy="31.32" rx="10.27" ry="19.68"/><ellipse class="cls-3" cx="376.21" cy="64.69" rx="10.27" ry="19.68"/><ellipse class="cls-1" cx="202.37" cy="237.22" rx="185.39" ry="33.87"/><ellipse class="cls-4" cx="205.6" cy="340.01" rx="109.54" ry="16.99"/><circle class="cls-5" cx="53.41" cy="170.43" r="26.05" transform="translate(-10.83 3.78) rotate(-3.68)"/><path class="cls-6" d="M62.4,146A26,26,0,0,1,31.1,183.91,26,26,0,1,0,62.4,146Z"/><circle class="cls-5" cx="197.87" cy="160.16" r="26.05" transform="translate(-9.88 13.04) rotate(-3.68)"/><path class="cls-6" d="M206.86,135.78a26,26,0,0,1-31.29,37.87,26,26,0,1,0,31.29-37.87Z"/><circle class="cls-5" cx="348.18" cy="173.28" r="26.05" transform="translate(-10.41 22.71) rotate(-3.68)"/><path class="cls-6" d="M357.17,148.9a26,26,0,0,1-31.29,37.87,26,26,0,1,0,31.29-37.87Z"/><ellipse class="cls-7" cx="7.17" cy="81.87" rx="2.1" ry="7.42"/><ellipse class="cls-7" cx="111.24" cy="24.97" rx="2.71" ry="7.42"/><ellipse class="cls-7" cx="258.77" cy="29.96" rx="2.99" ry="7.42"/><ellipse class="cls-7" cx="369.31" cy="63.07" rx="2.41" ry="5.79"/></svg>